<?xml version="1.0" encoding="utf-8"?>
<!-- Generator: Adobe Illustrator 24.1.0, SVG Export Plug-In . SVG Version: 6.00 Build 0)  -->
<svg version="1.1" id="CARRITOON" xmlns="http://www.w3.org/2000/svg" xmlns:xlink="http://www.w3.org/1999/xlink" x="0px" y="0px"
	 viewBox="0 0 196 191" style="enable-background:new 0 0 196 191;" xml:space="preserve">
<style type="text/css">
	.st0{fill:#110E0E;}
	.st1{fill:#D2A63A;}
	.st2{fill:#6F7044;}
	.st3{fill:#01E546;}
	.st4{fill:#01FD4D;}
</style>
<g id="carritoOn">
	<g>
		<path style="fill:#110E0E;"  class="st0" d="M6.26,97.44c0.06-50.87,41.09-92.63,93-92.7c51.48-0.07,92.06,41.39,92.07,92.08
			c0.01,51.01-41.75,92.59-92.95,92.6C47.49,189.43,6.28,148.28,6.26,97.44z M99.37,186.05c48.87-0.21,88-38.85,88.55-87.7
			c0.56-49.5-38.9-89.6-87.31-90.6c-48.89-1.01-88.37,37.5-90.39,84.96C7.99,144.8,49.29,185.89,99.37,186.05z"/>
		<path style="fill:#D2A63A;"  class="st1" d="M99.37,186.05c-50.07-0.16-91.37-41.25-89.16-93.34C12.23,45.25,51.71,6.74,100.6,7.75
			c48.42,1,87.87,41.09,87.31,90.6C187.36,147.2,148.23,185.83,99.37,186.05z M56.69,171.66c0.27,0.82,0.81,1.5,1.63,1.66
			c0.91,0.18,1.59,0.66,2.34,1.13c1.68,1.05,1.7,1.02,2.69-0.72c0.15-0.27,0.32-0.54,0.47-0.81c0.31,0.02,0.62,0.05,0.92,0.07
			c-0.06,0.27-0.12,0.54-0.18,0.81c-0.5,0.39-0.5,0.77,0.01,1.15c0.99,2.9,3.68,3.88,6.32,2.26c0.62-0.38,0.7-0.08,0.69,0.43
			c-0.02,0.67,0.14,1.26,0.65,1.72c1.49,1.37,3.82,0.23,5.29,1.78c0.26,0.28,0.95,0.2,1.45,0.2c0.54,0,0.86-0.4,0.38-0.75
			c-0.75-0.54-0.45-1.08-0.27-1.67c0.35-1.17,0.68-2.36,1.08-3.51c0.4-1.15,0.01-1.95-0.99-2.51c-1.08-0.62-2.27-0.92-3.5-1.04
			c-0.55-0.06-1.1,0.05-1.56,0.38c-0.47,0.34-0.74,0.81-0.64,1.4c0.06,0.36,0.39,0.52,0.69,0.58c0.76,0.17,0.54-0.56,0.74-0.89
			c0.33-0.55,0.79-0.72,1.38-0.59c0.57,0.13,1.03,0.41,1.03,1.08c0,0.66-0.44,0.98-1,1.11c-0.44,0.1-0.89,0.14-1.34,0.17
			c-1.06,0.07-2.09,0.19-2.85,1.06c-0.27,0.31-0.56,0.47-0.89,0.07c-0.57-0.67-0.94-0.44-1.31,0.23c-0.46,0.8-1.19,1.03-1.96,0.5
			c-1.02-0.7-0.64-1.7-0.33-2.59c0.37-1.08,1.03-0.29,1.54-0.14c0.61,0.18,1.18,0.47,1.77,0.7c0.45,0.17,0.89,0.25,1.18-0.27
			c0.32-0.09,0.53-0.22,0.18-0.54c0.05-0.27,0.1-0.53,0.16-0.8c0.51-0.49,0.57-0.96-0.05-1.42c-1.21-3.01-4.49-3.33-6.83-0.67
			c-0.24-0.06-0.48-0.11-0.72-0.17c0.83-1.5,1.67-3,2.48-4.51c0.2-0.36,0.57-0.72,0.02-1.17c-1.4-1.15-2.24-1.02-3.13,0.56
			c-0.11,0.2-0.24,0.38-0.36,0.57c-0.22,0.06-0.44,0.12-0.66,0.18c-1.26-1.5-2.3-1.68-3.98-0.71c-0.35-0.1-0.71-0.19-1.06-0.29
			c0.42-0.64,0.83-1.29,1.25-1.92c1.39-2.07,1.39-2.07-0.75-3.36c-0.01-0.18-0.08-0.33-0.28-0.33c-0.19,0-0.27,0.15-0.28,0.33
			c-1.58,2.32-3.15,4.64-4.74,6.95c-0.24,0.35-0.52,0.94-1.01,0.68c-0.55-0.29-0.1-0.8,0.06-1.17c1.12-2.67,2.25-5.34,3.38-8.01
			c0.42-0.28,0.37-0.47-0.11-0.57c-0.21-0.17-0.46-0.31-0.63-0.51c-0.88-1.05-1.73-0.91-2.77-0.14c-2.31,1.72-4.69,3.34-7.05,5
			c-0.49-0.01-0.92,0.13-0.98,0.67c-0.04,0.39,0.27,0.67,0.6,0.8c0.58,0.23,1.02,0,1.26-0.59c1.04-1.16,1.78-0.25,2.63,0.33
			c0.85,0.58,1.14,1.19,0.56,2.13c-0.43,0.69-0.27,1.27,0.43,1.72c0.45,0.3,0.86,0.66,1.28,0.99c0.21,0.64,0.91,0.46,1.31,0.77
			c2.66,1.88,2.04,1.51,3.76-0.65c0.13-0.17,0.22-0.38,0.32-0.57c0.31,0.05,0.63,0.1,0.94,0.15c-0.23,0.62-0.46,1.24-0.69,1.87
			C56.1,170.72,56.1,171.19,56.69,171.66z M108.96,20.23c-0.26,0.14-0.46,0.29-0.14,0.57c-0.04,0.18-0.08,0.35-0.12,0.53
			c-0.27,0.13-0.46,0.28-0.14,0.56c-0.04,0.18-0.08,0.35-0.12,0.53c-0.27,0.13-0.48,0.28-0.14,0.56c-0.04,0.18-0.08,0.36-0.12,0.53
			c-0.28,0.13-0.49,0.27-0.14,0.56c-0.06,0.26-0.12,0.53-0.18,0.79c-0.24,0.14-0.44,0.3-0.14,0.57c-0.04,0.17-0.08,0.35-0.13,0.52
			c-0.25,0.14-0.45,0.29-0.14,0.57c-0.04,0.17-0.08,0.35-0.12,0.52c-0.26,0.14-0.45,0.29-0.14,0.57c-0.04,0.18-0.08,0.35-0.12,0.53
			c-0.27,0.13-0.47,0.28-0.14,0.56c-0.04,0.18-0.08,0.35-0.12,0.53c-0.27,0.13-0.48,0.28-0.14,0.56c-0.04,0.18-0.08,0.36-0.12,0.54
			c-0.49,0.33-0.57,0.63,0.08,0.85c0.09,0.04,0.19,0.09,0.28,0.13c0.14,0.35,0.34,0.42,0.63,0.15c0.3-0.07,0.5-0.26,0.64-0.52
			c0.27-0.13,0.47-0.28,0.14-0.56c0.04-0.18,0.08-0.35,0.12-0.53c0.28-0.13,0.48-0.27,0.14-0.56c0.04-0.18,0.08-0.36,0.12-0.54
			c0.28-0.13,0.49-0.27,0.14-0.56c0.06-0.26,0.12-0.53,0.18-0.79c0.25-0.14,0.44-0.29,0.14-0.57c0.04-0.17,0.08-0.35,0.12-0.52
			c0.25-0.14,0.45-0.29,0.14-0.57c0.04-0.18,0.08-0.35,0.12-0.53c0.26-0.14,0.47-0.28,0.14-0.57c0.04-0.17,0.08-0.35,0.12-0.52
			c0.28,0,0.56-0.01,0.84-0.01c0.03,0.45,0.06,0.91,0.09,1.36c-0.33,0.58-0.36,1.13,0.12,1.65c0.05,0.72,0.1,1.44,0.15,2.16
			c-0.31,0.49-0.36,0.96,0.11,1.38c0.07,0.53,0.14,1.07,0.2,1.6c0.01,0.36,0.11,0.57,0.49,0.29c0.17,0.04,0.35,0.09,0.52,0.13
			c0.13,0.26,0.28,0.45,0.56,0.15c0.18,0.04,0.35,0.08,0.53,0.12c0.26,0.41,0.46,0.4,0.6-0.08c0.47-0.75,0.94-1.5,1.4-2.26
			c0.35-0.07,0.48-0.26,0.37-0.61c0.83-1.4,1.66-2.8,2.48-4.2c0.2,0.23,0.4,0.46,0.6,0.69c-0.04,0.18-0.08,0.35-0.12,0.53
			c-0.26,0.14-0.46,0.29-0.14,0.57c-0.04,0.18-0.08,0.35-0.12,0.53c-0.27,0.13-0.47,0.28-0.14,0.56c-0.04,0.18-0.08,0.35-0.12,0.53
			c-0.28,0.13-0.48,0.27-0.15,0.56c-0.04,0.18-0.08,0.36-0.12,0.54c-0.29,0.12-0.49,0.27-0.14,0.56c-0.06,0.26-0.12,0.53-0.18,0.79
			c-0.25,0.14-0.44,0.29-0.14,0.57c-0.04,0.18-0.08,0.35-0.12,0.53c-0.55,0.84-0.52,1,0.24,1.27c0.69,0.18,1.39,0.35,2.08,0.53
			c0.12,0.28,0.26,0.49,0.55,0.15c0.18,0.04,0.36,0.08,0.54,0.13c0.18,0.42,0.54,0.44,0.89,0.31c0.29-0.11,0.58-0.3,0.26-0.69
			c0.04-0.17,0.09-0.35,0.13-0.52c0.26-0.14,0.45-0.29,0.14-0.57c0.04-0.18,0.08-0.35,0.12-0.53c0.26-0.13,0.46-0.28,0.14-0.56
			c0.04-0.18,0.08-0.35,0.12-0.53c0.27-0.13,0.47-0.28,0.14-0.56c0.04-0.18,0.08-0.35,0.12-0.53c0.28-0.13,0.48-0.27,0.14-0.56
			c0.04-0.18,0.08-0.36,0.12-0.53c0.28-0.13,0.49-0.27,0.14-0.56c0.06-0.26,0.12-0.53,0.18-0.79c0.25-0.14,0.44-0.29,0.14-0.57
			c0.04-0.17,0.08-0.35,0.12-0.52c0.26-0.14,0.45-0.29,0.14-0.57c0.04-0.18,0.08-0.35,0.12-0.53c0.26-0.13,0.46-0.29,0.14-0.56
			c0.04-0.18,0.08-0.35,0.12-0.53c0.27-0.13,0.47-0.28,0.15-0.56c0.04-0.18,0.08-0.36,0.12-0.53c0.28-0.13,0.48-0.27,0.15-0.56
			c0.04-0.18,0.08-0.36,0.12-0.54c0.28-0.12,0.49-0.27,0.14-0.56c0.06-0.26,0.12-0.53,0.19-0.79c0.25-0.14,0.44-0.29,0.14-0.57
			c-0.01-0.3-0.01-0.61-0.02-0.91c-0.07-0.33-0.2-0.53-0.54-0.24c-0.17-0.04-0.35-0.09-0.52-0.13c-0.14-0.25-0.29-0.44-0.57-0.14
			c-0.17-0.04-0.35-0.09-0.52-0.13c-0.16-0.29-0.38-0.38-0.67-0.18c-0.42-0.1-0.83-0.21-1.25-0.31c-0.2-0.43-0.4-0.45-0.6,0.01
			c-0.28,0.4-0.57,0.8-0.85,1.19c-0.34,0.07-0.48,0.26-0.37,0.61c-0.15,0.25-0.29,0.51-0.44,0.76c-0.35,0.07-0.48,0.26-0.37,0.61
			c-0.15,0.25-0.29,0.51-0.44,0.76c-0.35,0.06-0.48,0.26-0.37,0.61c-0.56,0.93-1.12,1.86-1.68,2.8c-0.18-0.05-0.36-0.1-0.54-0.15
			c-0.02-0.37-0.04-0.73-0.06-1.1c0.33-0.58,0.35-1.13-0.11-1.66c-0.06-0.9-0.11-1.8-0.17-2.71c0.34-0.58,0.36-1.13-0.11-1.66
			c-0.04-0.45-0.08-0.9-0.12-1.34c0.11-0.8-0.36-0.67-0.85-0.53c-0.18-0.04-0.35-0.09-0.53-0.13c-0.13-0.27-0.28-0.47-0.56-0.15
			c-0.18-0.04-0.35-0.09-0.53-0.13c-0.13-0.27-0.28-0.47-0.56-0.15c-0.18-0.04-0.35-0.09-0.53-0.13c-0.13-0.27-0.28-0.47-0.56-0.15
			c-0.2-0.01-0.4-0.03-0.59-0.04c-0.79,0.1-0.7,0.59-0.51,1.14c-0.06,0.26-0.12,0.53-0.19,0.79c-0.24,0.14-0.43,0.3-0.14,0.57
			c-0.04,0.17-0.08,0.35-0.12,0.52c-0.25,0.14-0.44,0.29-0.14,0.57C109.04,19.88,109,20.05,108.96,20.23z M157.61,98.55
			c-0.05-34.17-27.73-60.82-60.57-60.64c-34.76,0.2-60.49,27.91-60.55,60.55c-0.06,33.36,26.5,60.63,60.37,60.69
			C131.85,159.22,157.63,130.92,157.61,98.55z M69.32,20.95c-1.16,0.08-2.27,0.29-3.32,0.74c-2,0.86-3.99,1.77-6.01,2.57
			c-0.88,0.35-1.06,0.73-0.68,1.62c1.4,3.3,2.72,6.64,4.08,9.96c1.41,3.45,1.4,3.4,4.8,1.92c1.03-0.45,1.11-0.91,0.68-1.85
			c-0.71-1.52-1.27-3.11-1.93-4.66c-0.34-0.8-0.03-1.18,0.73-1.4c1.17-0.33,2.05,0.13,2.7,1.47c0.56,1.14,1.07,2.31,1.63,3.44
			c0.31,0.63,0.76,1.01,1.54,0.66c1.12-0.5,2.25-0.97,3.38-1.45c0.48-0.2,0.66-0.46,0.24-0.9c-1.06-1.1-1.58-2.54-2.42-3.78
			c-0.52-0.76-1.17-1.3-2.09-1.34c-1.08-0.05-1.01-0.4-0.4-1.08c1.07-1.2,1.32-2.58,0.61-4.04C72.12,21.38,70.76,21.04,69.32,20.95z
			 M163.13,61.27c0.56-0.05,0.8,0.26,1.11,0.43c2.62,1.43,5.16-0.11,5.13-3.11c-0.02-1.61-0.68-3.01-1.51-4.32
			c-1.17-1.84-2.43-3.62-3.59-5.47c-0.52-0.83-0.96-0.88-1.73-0.32c-2.77,1.99-5.57,3.92-8.37,5.86c-3.4,2.36-3.38,2.34-0.96,5.66
			c0.47,0.64,0.81,0.69,1.42,0.24c1.28-0.94,2.6-1.83,3.91-2.72c0.39-0.27,0.77-0.8,1.31-0.52c0.6,0.32,0.8,0.97,0.84,1.62
			c0.07,0.92-0.45,1.54-1.12,2.06c-0.86,0.67-1.76,1.29-2.61,1.96c-0.9,0.71-1.24,1.48-0.36,2.52c0.67,0.8,1.18,1.72,1.75,2.6
			c0.34,0.53,0.63,0.58,0.99,0.01c0.41-0.66,0.94-1.22,1.55-1.71C162.43,64.83,163.84,63.55,163.13,61.27z M171.55,93.05
			c1.65-0.03,3.15-0.37,4.58-0.97c2.85-1.2,4.42-3.66,4-6.71c-0.38-2.73-1.05-5.42-1.59-8.13c-0.12-0.61-0.44-0.82-1.07-0.68
			c-4.37,1-8.75,1.99-13.12,2.98c-0.52,0.12-0.84,0.38-0.7,0.95c0.74,3.03,0.95,6.2,2.32,9.06
			C167.09,91.89,169.03,93.01,171.55,93.05z M148.62,51.34c2.23-0.03,4.51-1.53,6.33-4.19c2.26-3.29,2.03-6.37-0.8-9.2
			c-1.57-1.57-3.29-2.99-4.86-4.56c-0.84-0.83-1.36-0.69-2.06,0.15c-2.78,3.29-5.59,6.55-8.43,9.79c-0.53,0.61-0.57,1.02,0.06,1.57
			c1.71,1.49,3.35,3.06,5.08,4.52C145.27,50.56,146.8,51.35,148.62,51.34z M32.79,76.95c-0.04-2.16-0.66-3.85-2.58-4.76
			c-1.93-0.92-3.63-0.33-5.15,0.99c-0.97,0.84-1.79,1.8-2.54,2.84c-0.48,0.66-1.01,1.28-1.59,1.85c-0.5,0.5-1.15,0.78-1.86,0.45
			c-0.79-0.36-0.89-1.09-0.84-1.85c0.07-1.07,0.42-2.05,1.01-2.93c0.68-1.02,1.63-1.5,2.81-0.99c0.9,0.39,1.06,0.04,1.21-0.76
			c0.2-1.11-0.27-1.5-1.29-1.53c-1.15-0.03-2.19,0.28-2.93,1.17c-1.68,2.01-2.5,4.36-2.14,6.96c0.5,3.56,3.99,4.99,6.99,2.98
			c1-0.67,1.73-1.59,2.46-2.52c0.51-0.64,1.04-1.27,1.63-1.83c0.67-0.63,1.48-0.97,2.36-0.43c0.86,0.52,0.95,1.38,0.78,2.29
			c-0.14,0.76-0.39,1.49-0.78,2.17c-0.81,1.42-2.01,1.95-3.43,1.19c-1.35-0.73-1.46-0.11-1.58,0.97c-0.09,0.76,0.23,1.07,0.87,1.29
			c1.69,0.56,3.31,0.08,4.45-1.48C31.99,81.16,32.65,79.06,32.79,76.95z M38.92,63.95c0.23,0.06,0.49-0.3,0.73-0.72
			c0.47-0.83,0.92-1.67,1.45-2.47c0.63-0.94,0.36-1.29-0.69-1.53c-3.67-0.85-7.32-1.78-10.98-2.68c-3.39-0.83-3.37-0.82-4.99,2.27
			c-0.32,0.62-0.33,1.05,0.15,1.58c0.86,0.94,1.66,1.93,2.48,2.9c2.19,2.6,4.38,5.22,6.59,7.81c0.27,0.31,0.54,1.08,1.13,0.42
			c0.4-0.44,0.9-0.98,0.31-1.67c-0.18-0.21-0.31-0.47-0.52-0.63c-1.32-1.03-1.29-2.15-0.27-3.37c0.12-0.14,0.18-0.31,0.27-0.47
			c1.19-2.1,1.19-2.1,3.6-1.6C38.32,63.82,38.45,63.85,38.92,63.95z M132.01,39.88c-0.1,0.49,0.22,0.76,0.65,1
			c0.88,0.47,1.77,0.93,2.62,1.45c0.79,0.48,1.12,0.24,1.28-0.61c0.85-4.69,1.7-9.37,2.6-14.05c0.14-0.73-0.13-1.06-0.71-1.4
			c-2.9-1.71-2.89-1.73-5.32,0.66c-0.23,0.22-0.45,0.45-0.68,0.67c-2.6,2.53-5.18,5.08-7.81,7.58c-0.79,0.75-0.45,1.06,0.3,1.46
			c0.83,0.44,1.11-0.27,1.59-0.61c0.63-0.45,0.98-1.62,1.91-1.24c1.33,0.55,2.67,1.23,3.74,2.17c0.69,0.61-0.07,1.71-0.13,2.59
			C132.04,39.64,132.03,39.73,132.01,39.88z M46.67,33.54c0.02,0.09,0.03,0.18,0.05,0.27c1.45,4.73,2.91,9.45,4.36,14.18
			c0.2,0.64,0.52,0.62,1,0.27c0.56-0.41,0.84-0.81,0.61-1.59c-0.73-2.54-0.7-2.55,1.42-4.11c0.36-0.27,0.75-0.52,1.08-0.82
			c0.52-0.47,0.96-0.45,1.55-0.03c2.1,1.5,2.12,1.48,4.23-0.09c0.22-0.16,0.42-0.35,0.66-0.48c1.11-0.62,0.94-1.14,0-1.84
			c-3.09-2.31-6.12-4.68-9.18-7.03c-2.62-2.01-2.98-1.98-5.36,0.33C46.82,32.87,46.59,33.13,46.67,33.54z M44.74,45.37
			c-0.1-0.18-0.17-0.35-0.28-0.48c-0.87-1.07-1.3-0.1-1.76,0.43c-2.59,2.98-2.56,2.97-5.36,0.15c-0.64-0.64-0.62-1.07-0.03-1.69
			c0.91-0.95,1.73-1.98,2.63-2.95c0.46-0.5,0.72-0.94,0.05-1.46c-0.69-0.55-0.96,0.08-1.3,0.46c-1.94,2.16-3.84,4.37-5.83,6.49
			c-0.73,0.78-0.71,1.28,0.07,2c3.14,2.89,6.25,5.82,9.33,8.77c0.67,0.64,1.15,0.76,1.77-0.02c0.59-0.75,1.23-1.46,1.9-2.14
			c0.55-0.55,0.51-0.96-0.06-1.46c-0.95-0.84-1.86-1.74-2.79-2.6c-1.74-1.59-1.74-1.58-0.22-3.28c0.45-0.51,0.9-1.02,1.35-1.54
			C44.39,45.83,44.55,45.61,44.74,45.37z M77.72,18.58c0.04,0.27,0.08,0.54,0.14,0.81c0.83,4.05,1.72,8.08,2.47,12.14
			c0.26,1.4,0.81,1.74,2.09,1.27c0.59-0.22,1.23-0.35,1.86-0.41c1.13-0.1,1.28-0.68,1.07-1.67c-0.75-3.46-1.46-6.93-2.15-10.4
			c-0.78-3.89-0.94-3.99-4.75-2.69c-0.04,0.01-0.09,0.02-0.13,0.03C77.81,17.78,77.64,18.1,77.72,18.58z M175.63,69.44
			c-0.4-0.96-0.9-2.03-1.29-3.14c-0.32-0.9-0.75-1.03-1.62-0.63c-3.08,1.44-6.19,2.82-9.31,4.19c-3.83,1.68-3.83,1.66-1.93,5.42
			c0.32,0.64,0.67,0.75,1.29,0.48c4.05-1.82,8.12-3.63,12.17-5.44C175.27,70.17,175.65,70.06,175.63,69.44z M118.36,175.52
			c0.13-0.53-0.09-1.2,0.47-1.26c0.57-0.06,0.35,0.6,0.44,0.96c0.11,0.4,0.37,0.49,0.73,0.38c0.51-0.15,1.18-0.14,1.28-0.82
			c0.11-0.79-0.1-1.56-0.73-2.09c-0.51-0.44-1.12-0.31-1.65,0.03c-0.33,0.21-0.78,0.78-0.89,0.71c-1.24-0.75-2.12,0.28-3.13,0.57
			c-1.08,0.32-2.24-0.12-2.46-1.01c-0.07-0.28-0.09-0.57,0.18-0.73c0.28-0.17,0.52-0.01,0.68,0.24c0.18,0.28,0.24,0.75,0.76,0.56
			c0.31-0.11,0.58-0.3,0.57-0.67c-0.01-0.45-0.27-0.76-0.63-0.99c-1.23-0.77-3.4,0.16-3.73,1.62c-0.16,0.7,0.23,1.57-0.71,2.02
			c-0.19,0.09-0.03,0.52,0.17,0.54c1.21,0.12,0.99,1.13,1.15,1.85c0.29,1.33,0.55,2.67,0.73,4.02c0.14,1.05,0.64,1.21,1.59,0.98
			c0.9-0.21,1.71-0.25,1.41-1.56c-0.36-1.54-0.52-3.14-0.91-4.67c-0.23-0.9,0.12-1.34,0.86-1.49c0.77-0.16,0.62,0.62,0.73,1.01
			c0.45,1.52,0.9,3.05,1.21,4.61c0.25,1.24,0.84,1.32,1.93,1.06c1.07-0.26,1.44-0.64,1.07-1.75
			C119.01,178.26,118.71,176.83,118.36,175.52z M84.94,179.23c-0.05,2.52,0.8,3.92,2.46,3.8c1.29-0.09,2.48,0.16,3.69,0.37
			c1,0.17,1.27-0.21,1.37-1.12c0.29-2.66,0.64-5.32,0.99-7.98c0.26-1.98,0.26-1.9-1.7-2.06c-1.55-0.12-1.24,0.98-1.35,1.79
			c-0.11,0.81-0.05,1.43-1.23,0.82c-1.4-0.72-2.82-0.08-3.52,1.35C85.15,177.24,84.98,178.36,84.94,179.23z M138.3,166.44
			c-0.01-0.38,0-0.78,0.39-0.94c0.42-0.17,0.68,0.18,0.87,0.48c0.9,1.4,1.79,2.81,2.68,4.23c0.71,1.14,1.3,0.18,1.9-0.12
			c0.6-0.31,1.28-0.61,0.66-1.52c-0.86-1.28-1.66-2.6-2.49-3.9c-1.44-2.24-3.27-2.16-4.47,0.23c-0.23,0.46-0.24,0.68-0.91,0.35
			c-0.92-0.44-1.47,0.62-2.14,1.06c-0.64,0.42-0.03,0.89,0.2,1.27c0.97,1.59,2.02,3.13,2.95,4.74c0.52,0.91,0.96,1.06,1.91,0.49
			c1.08-0.65,1.44-1.2,0.55-2.29c-0.62-0.77-1.09-1.67-1.6-2.53C138.52,167.51,138.3,167.01,138.3,166.44z M147.09,167.36
			c2.13-0.04,4.36-2.2,4.29-4.16c-0.07-2.09-2.54-4.66-4.46-4.65c-2.09,0.01-4.37,2.17-4.35,4.12
			C142.61,164.88,145.03,167.4,147.09,167.36z M98.9,179.95c0,0.01,0,0.02,0,0.02c0.45,0,0.91-0.01,1.36,0
			c0.51,0.01,0.71-0.24,0.76-0.74c0.21-2.39-1.74-4.28-4.1-3.91c-1.72,0.26-2.82,1.33-3.19,2.96c-0.39,1.71-0.48,3.47,1.07,4.78
			c1.13,0.95,3.66,1.13,4.92,0.37c0.57-0.34,0.94-0.85,1.13-1.48c0.14-0.49,0.12-0.92-0.48-1.07c-0.64-0.16-0.62,0.33-0.68,0.73
			c-0.13,0.99-0.7,1.52-1.67,1.31c-1.21-0.26-1.27-1.34-1.24-2.28c0.03-1.14,1.01-0.55,1.58-0.69
			C98.53,179.92,98.72,179.95,98.9,179.95z M128.53,176.04c0.01,0.09,0.02,0.18,0.03,0.27c0.07,0.88-0.37,1.38-1.2,1.52
			c-0.76,0.13-1.87-0.9-2.08-1.85c-0.2-0.94,0.61-0.85,1.09-1.06c0.62-0.27,1.27-0.47,1.91-0.71c0.43-0.16,0.66-0.39,0.54-0.92
			c-0.41-1.81-2.39-3.05-4.18-2.58c-1.78,0.47-2.87,1.8-2.98,3.61c-0.11,1.81,1.24,4.16,2.7,4.69c1.41,0.52,3.75-0.14,4.73-1.33
			c0.39-0.47,0.59-1.02,0.56-1.63c-0.02-0.45,0.03-1-0.62-1.01C128.3,175.05,128.47,175.6,128.53,176.04z M132.87,170.33
			c-0.27,0-0.55,0.01-0.82,0c-0.53-0.03-1.13,0.06-1.4-0.58c-0.14-0.33,0-0.63,0.28-0.83c0.52-0.37,1.08-0.47,1.67-0.22
			c0.16,0.07,0.32,0.18,0.43,0.32c0.43,0.53,0.88,0.46,1.23-0.02c0.48-0.64-0.14-0.91-0.54-1.13c-1.25-0.69-2.38-0.17-3.45,0.49
			c-1.29,0.8-1.89,2.07-1.56,3.19c0.42,1.44,1.58,1.74,2.87,1.81c0.72,0.04,1.45,0.05,2.17,0.11c0.43,0.04,0.82,0.26,0.85,0.74
			c0.04,0.55-0.37,0.81-0.83,0.93c-0.78,0.21-1.58,0.21-2.11-0.51c-0.47-0.65-0.89-0.51-1.31-0.04c-0.5,0.56,0,0.95,0.36,1.23
			c0.96,0.77,2.04,0.6,3.1,0.22c2.23-0.8,3.27-2.03,2.99-3.49C136.53,170.96,135.35,170.3,132.87,170.33z M104.87,178.29
			c0,0-0.01,0-0.01,0c-0.09-1.59-0.19-3.17-0.26-4.76c-0.08-1.58-1.26-0.89-2.03-0.99c-0.83-0.11-1.1,0.34-1.05,1.15
			c0.21,2.99,0.4,5.98,0.55,8.98c0.07,1.46,1.11,0.83,1.8,0.88c0.7,0.05,1.39,0.04,1.28-1.04C105,181.11,104.96,179.7,104.87,178.29
			z"/>
		<path style="fill:#110E0E;"  class="st0" d="M157.61,98.55c0.02,32.37-25.76,60.67-60.75,60.6c-33.87-0.06-60.43-27.33-60.37-60.69
			c0.06-32.64,25.79-60.35,60.55-60.55C129.88,37.73,157.56,64.38,157.61,98.55z M97.02,39.62c-32.96-0.05-60.15,27.45-58.82,61.35
			c1.22,31.25,27.18,56.81,59.4,56.54c32.13-0.27,58.72-26.57,58.42-59.76C155.73,65.88,129.07,39.48,97.02,39.62z"/>
		<path style="fill:#110E0E;"  class="st0" d="M125.22,19.93c0.01,0.3,0.01,0.61,0.02,0.91c-0.23,0.14-0.27,0.34-0.14,0.57c-0.06,0.26-0.12,0.53-0.19,0.79
			c-0.22,0.14-0.25,0.33-0.14,0.56c-0.04,0.18-0.08,0.36-0.12,0.54c-0.22,0.14-0.25,0.33-0.15,0.56c-0.04,0.18-0.08,0.36-0.12,0.53
			c-0.22,0.14-0.26,0.33-0.15,0.56c-0.04,0.18-0.08,0.35-0.12,0.53c-0.22,0.14-0.26,0.34-0.14,0.57c-0.04,0.18-0.08,0.35-0.12,0.53
			c-0.23,0.14-0.27,0.34-0.14,0.57c-0.04,0.17-0.08,0.35-0.12,0.52c-0.23,0.14-0.27,0.34-0.14,0.57c-0.06,0.26-0.12,0.53-0.18,0.79
			c-0.22,0.14-0.25,0.33-0.14,0.56c-0.04,0.18-0.08,0.36-0.12,0.53c-0.22,0.14-0.25,0.33-0.14,0.56c-0.04,0.18-0.08,0.35-0.12,0.53
			c-0.22,0.14-0.26,0.33-0.14,0.56c-0.04,0.18-0.08,0.35-0.12,0.53c-0.23,0.14-0.26,0.33-0.14,0.56c-0.04,0.18-0.08,0.35-0.12,0.53
			c-0.23,0.14-0.27,0.34-0.14,0.57c-0.04,0.17-0.09,0.35-0.13,0.52c-0.38,0.12-0.77,0.25-1.15,0.37c-0.18-0.04-0.36-0.08-0.53-0.13
			c-0.14-0.22-0.33-0.25-0.55-0.15c-0.69-0.18-1.39-0.35-2.08-0.53c-0.37-0.37-0.08-0.86-0.24-1.27c0.04-0.18,0.08-0.35,0.12-0.53
			c0.23-0.14,0.27-0.34,0.14-0.57c0.06-0.26,0.12-0.53,0.18-0.79c0.22-0.14,0.25-0.33,0.14-0.56c0.04-0.18,0.08-0.36,0.12-0.54
			c0.22-0.14,0.25-0.33,0.15-0.56c0.04-0.18,0.08-0.35,0.12-0.53c0.22-0.14,0.26-0.33,0.14-0.56c0.04-0.18,0.08-0.35,0.12-0.53
			c0.23-0.14,0.26-0.34,0.14-0.57c0.04-0.18,0.08-0.35,0.12-0.53c0.44-0.68,0.57-1.42,0.51-2.35c-0.7,0.43-0.94,1.03-1.11,1.66
			c-0.83,1.4-1.66,2.8-2.48,4.2c-0.27,0.11-0.42,0.3-0.37,0.61c-0.47,0.75-0.94,1.5-1.4,2.26c-0.2,0.03-0.4,0.05-0.6,0.08
			c-0.18-0.04-0.35-0.08-0.53-0.12c-0.14-0.23-0.33-0.27-0.56-0.15c-0.17-0.04-0.35-0.09-0.52-0.13c-0.1-0.21-0.27-0.29-0.49-0.29
			c-0.07-0.53-0.14-1.07-0.2-1.6c0.17-0.48,0.24-0.95-0.11-1.38c-0.05-0.72-0.1-1.44-0.15-2.16c0.16-0.57,0.25-1.13-0.12-1.65
			c-0.03-0.45-0.06-0.91-0.09-1.36c0.1-0.69,0.25-1.4-0.28-2.13c-0.43,0.73-0.59,1.41-0.56,2.14c-0.04,0.17-0.08,0.35-0.12,0.52
			c-0.23,0.14-0.26,0.34-0.14,0.57c-0.04,0.18-0.08,0.35-0.12,0.53c-0.23,0.14-0.27,0.34-0.14,0.57c-0.04,0.17-0.08,0.35-0.12,0.52
			c-0.23,0.14-0.27,0.34-0.14,0.57c-0.06,0.26-0.12,0.53-0.18,0.79c-0.22,0.14-0.25,0.33-0.14,0.56c-0.04,0.18-0.08,0.36-0.12,0.53
			c-0.22,0.14-0.25,0.33-0.14,0.56c-0.04,0.18-0.08,0.35-0.12,0.53c-0.22,0.14-0.26,0.33-0.14,0.56c-0.14,0.27-0.34,0.45-0.64,0.52
			c-0.18-0.18-0.39-0.23-0.63-0.15c-0.09-0.04-0.19-0.09-0.28-0.13c-0.03-0.28-0.05-0.57-0.08-0.85c0.04-0.18,0.08-0.36,0.12-0.53
			c0.22-0.14,0.25-0.33,0.14-0.56c0.04-0.18,0.08-0.35,0.12-0.53c0.22-0.14,0.26-0.33,0.14-0.56c0.04-0.18,0.08-0.35,0.12-0.53
			c0.23-0.14,0.26-0.34,0.14-0.57c0.04-0.17,0.08-0.35,0.12-0.52c0.23-0.14,0.27-0.34,0.14-0.57c0.04-0.17,0.08-0.35,0.13-0.52
			c0.23-0.15,0.27-0.34,0.14-0.57c0.06-0.26,0.12-0.53,0.18-0.79c0.22-0.14,0.25-0.33,0.14-0.56c0.04-0.18,0.08-0.36,0.12-0.53
			c0.22-0.14,0.25-0.33,0.14-0.56c0.04-0.18,0.08-0.35,0.12-0.53c0.22-0.14,0.26-0.34,0.14-0.56c0.04-0.18,0.08-0.35,0.12-0.53
			c0.22-0.14,0.26-0.34,0.14-0.57c0.04-0.18,0.08-0.35,0.12-0.53c0.23-0.14,0.27-0.34,0.14-0.57c0.04-0.17,0.08-0.35,0.12-0.52
			c0.23-0.14,0.27-0.34,0.14-0.57c0.06-0.26,0.12-0.53,0.19-0.79c0.17-0.38,0.34-0.76,0.51-1.14c0.2,0.01,0.4,0.03,0.59,0.04
			c0.14,0.22,0.33,0.27,0.56,0.15c0.18,0.04,0.35,0.09,0.53,0.13c0.14,0.23,0.33,0.26,0.56,0.15c0.18,0.04,0.35,0.09,0.53,0.13
			c0.14,0.23,0.33,0.26,0.56,0.15c0.18,0.04,0.35,0.09,0.53,0.13c0.28,0.18,0.56,0.35,0.85,0.53c0.04,0.45,0.08,0.9,0.12,1.34
			c-0.18,0.57-0.26,1.13,0.11,1.66c0.06,0.9,0.11,1.8,0.17,2.71c-0.18,0.57-0.26,1.13,0.11,1.66c0.02,0.37,0.04,0.73,0.06,1.1
			c-0.08,0.25-0.17,0.57,0.13,0.66c0.36,0.1,0.35-0.27,0.41-0.51c0.56-0.93,1.12-1.86,1.68-2.8c0.27-0.11,0.41-0.3,0.37-0.61
			c0.15-0.25,0.29-0.51,0.44-0.76c0.27-0.11,0.42-0.3,0.37-0.61c0.15-0.25,0.29-0.51,0.44-0.76c0.27-0.11,0.42-0.3,0.37-0.61
			c0.28-0.4,0.57-0.8,0.85-1.19c0.2,0,0.4,0,0.6-0.01c0.42,0.1,0.83,0.21,1.25,0.31c0.18,0.22,0.39,0.34,0.67,0.18
			c0.17,0.04,0.35,0.09,0.52,0.13c0.14,0.23,0.33,0.27,0.57,0.14c0.17,0.04,0.35,0.09,0.52,0.13
			C124.8,19.92,124.99,19.97,125.22,19.93z"/>
		<path style="fill:#110E0E;"  class="st0" d="M69.32,20.95c1.45,0.1,2.81,0.44,3.51,1.89c0.71,1.46,0.46,2.84-0.61,4.04c-0.61,0.69-0.68,1.03,0.4,1.08
			c0.93,0.05,1.58,0.58,2.09,1.34c0.84,1.24,1.36,2.68,2.42,3.78c0.43,0.44,0.24,0.7-0.24,0.9c-1.13,0.48-2.26,0.95-3.38,1.45
			c-0.78,0.35-1.22-0.04-1.54-0.66c-0.57-1.14-1.08-2.3-1.63-3.44c-0.65-1.34-1.53-1.8-2.7-1.47c-0.75,0.21-1.07,0.6-0.73,1.4
			c0.66,1.55,1.22,3.13,1.93,4.66c0.43,0.93,0.35,1.4-0.68,1.85c-3.4,1.48-3.38,1.52-4.8-1.92c-1.36-3.32-2.68-6.66-4.08-9.96
			c-0.38-0.89-0.2-1.27,0.68-1.62c2.03-0.8,4.01-1.7,6.01-2.57C67.05,21.24,68.16,21.03,69.32,20.95z M68.74,26.28
			c-0.04-2.24-1.97-3.44-3.94-2.48c-0.56,0.27-0.73,0.58-0.47,1.16c0.49,1.11,0.93,2.25,1.4,3.37c0.14,0.35,0.3,0.61,0.8,0.52
			C67.67,28.64,68.76,27.41,68.74,26.28z"/>
		<path style="fill:#110E0E;"  class="st0" d="M163.13,61.27c0.71,2.28-0.7,3.57-2.23,4.8c-0.61,0.49-1.13,1.05-1.55,1.71c-0.36,0.57-0.65,0.52-0.99-0.01
			c-0.56-0.88-1.08-1.8-1.75-2.6c-0.87-1.04-0.54-1.81,0.36-2.52c0.86-0.67,1.75-1.3,2.61-1.96c0.67-0.52,1.19-1.15,1.12-2.06
			c-0.05-0.65-0.24-1.31-0.84-1.62c-0.53-0.28-0.91,0.25-1.31,0.52c-1.32,0.89-2.63,1.78-3.91,2.72c-0.61,0.45-0.96,0.4-1.42-0.24
			c-2.43-3.32-2.44-3.3,0.96-5.66c2.8-1.94,5.6-3.88,8.37-5.86c0.77-0.55,1.21-0.5,1.73,0.32c1.15,1.85,2.42,3.63,3.59,5.47
			c0.83,1.31,1.49,2.7,1.51,4.32c0.03,3-2.51,4.54-5.13,3.11C163.93,61.53,163.69,61.22,163.13,61.27z M163.62,58.13
			c1.16-0.12,2.1-0.74,2.58-1.85c0.49-1.13-0.07-2.11-0.75-3c-0.31-0.4-0.65-0.17-0.95,0.04c-1.01,0.69-2.01,1.39-3,2.09
			c-0.26,0.18-0.57,0.4-0.36,0.77C161.68,57.15,162.3,58.04,163.62,58.13z"/>
		<path style="fill:#110E0E;"  class="st0" d="M171.55,93.05c-2.51-0.03-4.46-1.15-5.59-3.51c-1.37-2.86-1.58-6.03-2.32-9.06c-0.14-0.56,0.18-0.83,0.7-0.95
			c4.38-0.99,8.75-1.97,13.12-2.98c0.63-0.14,0.95,0.07,1.07,0.68c0.54,2.71,1.22,5.4,1.59,8.13c0.42,3.05-1.15,5.51-4,6.71
			C174.69,92.68,173.19,93.01,171.55,93.05z M169.96,87.96c2.03-0.2,4.52-0.63,6.83-1.76c1.56-0.76,2.08-2.26,1.5-3.89
			c-0.18-0.5-0.44-0.6-0.92-0.49c-3.57,0.82-7.15,1.63-10.72,2.43c-0.61,0.14-0.76,0.45-0.65,1.08
			C166.34,87.24,167.31,88.02,169.96,87.96z"/>
		<path style="fill:#110E0E;"  class="st0" d="M148.62,51.34c-1.82,0.01-3.35-0.78-4.69-1.91c-1.73-1.46-3.37-3.04-5.08-4.52
			c-0.63-0.55-0.59-0.96-0.06-1.57c2.84-3.24,5.65-6.5,8.43-9.79c0.71-0.84,1.22-0.98,2.06-0.15c1.57,1.57,3.29,2.99,4.86,4.56
			c2.83,2.83,3.06,5.91,0.8,9.2C153.13,49.81,150.86,51.31,148.62,51.34z M153,39.55c-0.01-0.05-0.02-0.28-0.09-0.49
			c-0.28-0.86-0.86-1.61-1.64-1.9c-0.77-0.29-1.04,0.69-1.45,1.16c-1.98,2.24-3.94,4.49-5.85,6.79c-0.41,0.49-1.4,0.92-0.85,1.76
			c0.55,0.83,1.43,1.41,2.53,1.35c0.75-0.04,1.38-0.45,1.93-0.92c1.87-1.6,3.48-3.43,4.77-5.53C152.71,41.14,153.04,40.49,153,39.55
			z"/>
		<path style="fill:#110E0E;"  class="st0" d="M32.79,76.95c-0.14,2.11-0.8,4.22-2.15,6.06c-1.14,1.55-2.76,2.04-4.45,1.48c-0.64-0.21-0.96-0.52-0.87-1.29
			c0.12-1.08,0.23-1.7,1.58-0.97c1.42,0.77,2.62,0.23,3.43-1.19c0.39-0.68,0.63-1.41,0.78-2.17c0.17-0.91,0.08-1.76-0.78-2.29
			c-0.88-0.54-1.69-0.2-2.36,0.43c-0.59,0.56-1.12,1.19-1.63,1.83c-0.74,0.93-1.46,1.85-2.46,2.52c-3,2.01-6.49,0.58-6.99-2.98
			c-0.37-2.6,0.46-4.95,2.14-6.96c0.74-0.89,1.78-1.2,2.93-1.17c1.02,0.03,1.48,0.42,1.29,1.53c-0.14,0.8-0.31,1.15-1.21,0.76
			c-1.18-0.51-2.13-0.03-2.81,0.99c-0.58,0.88-0.94,1.87-1.01,2.93c-0.05,0.76,0.05,1.48,0.84,1.85c0.72,0.33,1.36,0.05,1.86-0.45
			c0.58-0.57,1.11-1.2,1.59-1.85c0.75-1.03,1.57-2,2.54-2.84c1.52-1.32,3.22-1.9,5.15-0.99C32.13,73.09,32.75,74.78,32.79,76.95z"/>
		<path style="fill:#110E0E;"  class="st0" d="M38.92,63.95c-0.47-0.1-0.6-0.13-0.73-0.16c-2.42-0.5-2.42-0.5-3.6,1.6c-0.09,0.16-0.16,0.34-0.27,0.47
			c-1.02,1.21-1.05,2.33,0.27,3.37c0.21,0.16,0.34,0.42,0.52,0.63c0.6,0.68,0.1,1.22-0.31,1.67c-0.6,0.66-0.86-0.11-1.13-0.42
			c-2.21-2.59-4.4-5.2-6.59-7.81c-0.82-0.97-1.62-1.96-2.48-2.9c-0.48-0.53-0.47-0.96-0.15-1.58c1.61-3.09,1.6-3.1,4.99-2.27
			c3.66,0.9,7.31,1.83,10.98,2.68c1.05,0.24,1.32,0.59,0.69,1.53c-0.53,0.79-0.98,1.64-1.45,2.47C39.41,63.65,39.15,64,38.92,63.95z
			 M28.16,61.19c-0.07,0.1-0.15,0.19-0.22,0.29c1.22,1.43,2.44,2.86,3.66,4.29c0.17,0.2,0.5,0.48,0.67,0.22
			c0.63-0.93,1.19-1.91,1.71-2.9c0.15-0.29-0.22-0.44-0.48-0.51C31.73,62.11,29.94,61.65,28.16,61.19z"/>
		<path style="fill:#110E0E;"  class="st0" d="M132.01,39.88c0.02-0.16,0.04-0.24,0.04-0.34c0.06-0.88,0.82-1.98,0.13-2.59c-1.06-0.94-2.41-1.63-3.74-2.17
			c-0.94-0.38-1.28,0.79-1.91,1.24c-0.48,0.34-0.76,1.05-1.59,0.61c-0.75-0.4-1.09-0.71-0.3-1.46c2.63-2.5,5.21-5.05,7.81-7.58
			c0.23-0.22,0.45-0.44,0.68-0.67c2.43-2.38,2.42-2.37,5.32-0.66c0.58,0.34,0.85,0.67,0.71,1.4c-0.89,4.68-1.75,9.36-2.6,14.05
			c-0.15,0.85-0.49,1.09-1.28,0.61c-0.85-0.52-1.74-0.98-2.62-1.45C132.22,40.65,131.91,40.37,132.01,39.88z M134.15,28.97
			c-0.14-0.09-0.28-0.18-0.42-0.27c-1.31,1.36-2.62,2.71-3.92,4.07c-0.19,0.2-0.42,0.48-0.14,0.7c0.86,0.67,1.82,1.17,2.84,1.54
			c0.31,0.12,0.46-0.2,0.53-0.48c0.01-0.04,0.02-0.09,0.03-0.13C133.43,32.59,133.79,30.78,134.15,28.97z"/>
		<path style="fill:#110E0E;"  class="st0" d="M46.67,33.54c-0.07-0.41,0.15-0.67,0.43-0.94c2.38-2.32,2.75-2.34,5.36-0.33c3.06,2.35,6.09,4.72,9.18,7.03
			c0.94,0.7,1.11,1.22,0,1.84c-0.24,0.13-0.44,0.32-0.66,0.48c-2.12,1.56-2.13,1.59-4.23,0.09c-0.59-0.42-1.02-0.44-1.55,0.03
			c-0.34,0.3-0.72,0.55-1.08,0.82c-2.12,1.56-2.15,1.57-1.42,4.11c0.23,0.78-0.05,1.18-0.61,1.59c-0.48,0.35-0.81,0.37-1-0.27
			c-1.45-4.73-2.9-9.45-4.36-14.18C46.69,33.72,46.68,33.63,46.67,33.54z M49.71,36.17c-0.1,0.07-0.21,0.14-0.31,0.21
			c0.57,1.8,1.13,3.61,1.71,5.41c0.08,0.26,0.24,0.62,0.54,0.47c1.01-0.51,1.9-1.22,2.72-2c0.19-0.18-0.03-0.41-0.2-0.57
			c-0.03-0.03-0.07-0.06-0.1-0.09C52.62,38.46,51.17,37.32,49.71,36.17z"/>
		<path style="fill:#110E0E;"  class="st0" d="M44.74,45.37c-0.19,0.24-0.35,0.46-0.52,0.66c-0.44,0.52-0.89,1.03-1.35,1.54c-1.52,1.7-1.52,1.69,0.22,3.28
			c0.94,0.86,1.84,1.76,2.79,2.6c0.57,0.5,0.6,0.91,0.06,1.46c-0.67,0.68-1.31,1.39-1.9,2.14c-0.62,0.78-1.1,0.66-1.77,0.02
			c-3.08-2.95-6.19-5.88-9.33-8.77c-0.78-0.72-0.81-1.21-0.07-2c1.99-2.12,3.89-4.32,5.83-6.49c0.34-0.38,0.61-1,1.3-0.46
			c0.67,0.53,0.41,0.96-0.05,1.46c-0.89,0.97-1.72,2-2.63,2.95c-0.59,0.62-0.61,1.05,0.03,1.69c2.8,2.82,2.77,2.83,5.36-0.15
			c0.46-0.53,0.89-1.5,1.76-0.43C44.57,45.02,44.64,45.19,44.74,45.37z"/>
		<path style="fill:#110E0E;"  class="st0" d="M72.12,174.65c-0.29,0.53-0.73,0.45-1.18,0.27c-0.59-0.23-1.17-0.52-1.77-0.7c-0.51-0.15-1.17-0.94-1.54,0.14
			c-0.31,0.89-0.68,1.89,0.33,2.59c0.77,0.53,1.5,0.31,1.96-0.5c0.38-0.67,0.75-0.9,1.31-0.23c0.34,0.4,0.62,0.24,0.89-0.07
			c0.76-0.87,1.79-0.99,2.85-1.06c0.45-0.03,0.91-0.07,1.34-0.17c0.57-0.13,1-0.46,1-1.11c0-0.67-0.46-0.95-1.03-1.08
			c-0.59-0.14-1.05,0.04-1.38,0.59c-0.2,0.33,0.02,1.06-0.74,0.89c-0.3-0.07-0.63-0.22-0.69-0.58c-0.1-0.6,0.16-1.07,0.64-1.4
			c0.46-0.33,1.01-0.43,1.56-0.38c1.23,0.12,2.41,0.42,3.5,1.04c0.99,0.57,1.38,1.37,0.99,2.51c-0.4,1.16-0.72,2.34-1.08,3.51
			c-0.18,0.59-0.48,1.14,0.27,1.67c0.48,0.34,0.17,0.75-0.38,0.75c-0.49,0-1.18,0.07-1.45-0.2c-1.47-1.55-3.8-0.41-5.29-1.78
			c-0.51-0.47-0.66-1.06-0.65-1.72c0.01-0.5-0.07-0.81-0.69-0.43c-2.64,1.62-5.34,0.64-6.32-2.26c0.14-0.38,0.14-0.77-0.01-1.15
			c0.06-0.27,0.12-0.54,0.18-0.81c0.28-0.58,0.56-1.17,0.84-1.75c2.33-2.67,5.62-2.35,6.83,0.67c-0.1,0.48-0.12,0.95,0.05,1.42
			c-0.05,0.27-0.1,0.53-0.16,0.8C72.09,174.24,72.05,174.42,72.12,174.65z M74.55,178.19c0,0.39,0,1,0.5,0.92
			c1.33-0.23,1.13-1.56,1.52-2.45c0.14-0.31,0.09-0.7-0.4-0.6C75.04,176.29,74.77,177.22,74.55,178.19z M70.44,171.52
			c-0.07-0.42,0.01-1-0.58-0.9c-0.88,0.16-1.14,1-1.35,1.72c-0.2,0.69,0.53,0.91,0.93,0.86C70.42,173.08,70.18,172.12,70.44,171.52z
			"/>
		<path style="fill:#110E0E;"  class="st0" d="M55.83,158.85c-1.13,2.67-2.27,5.33-3.38,8.01c-0.16,0.37-0.61,0.89-0.06,1.17c0.49,0.26,0.77-0.33,1.01-0.68
			c1.59-2.31,3.16-4.64,4.74-6.95c0.18,0,0.37,0,0.55,0c2.14,1.29,2.14,1.29,0.75,3.36c-0.43,0.64-0.84,1.28-1.25,1.92
			c-0.7,0.77-1.35,1.58-1.74,2.56c-0.11,0.19-0.19,0.4-0.32,0.57c-1.72,2.16-1.09,2.53-3.76,0.65c0.02-0.39,0.34-0.89,0-1.16
			c-0.5-0.4-0.82,0.41-1.31,0.38c-0.43-0.33-0.83-0.7-1.28-0.99c-0.69-0.46-0.86-1.03-0.43-1.72c0.59-0.93,0.3-1.55-0.56-2.13
			c-0.85-0.58-1.59-1.49-2.63-0.33c-0.39-0.2-0.81,0.48-1.18-0.01c-0.31-0.41,0.35-0.53,0.3-0.87c2.35-1.66,4.74-3.28,7.05-5
			c1.04-0.77,1.89-0.91,2.77,0.14c0.17,0.2,0.42,0.34,0.63,0.51C55.76,158.47,55.79,158.66,55.83,158.85z M52.11,159.73
			c-0.08-0.08-0.16-0.17-0.24-0.25c-0.99,0.69-1.99,1.38-2.98,2.08c-0.27,0.19-0.57,0.46-0.21,0.76c0.48,0.4,0.89,1.04,1.54,1.03
			c0.57-0.01,0.6-0.72,0.8-1.15C51.42,161.39,51.75,160.55,52.11,159.73z"/>
		<path style="fill:#110E0E;"  class="st0" d="M77.72,18.58c-0.08-0.48,0.09-0.8,0.57-0.92c0.04-0.01,0.09-0.02,0.13-0.03c3.81-1.29,3.97-1.19,4.75,2.69
			c0.7,3.47,1.4,6.94,2.15,10.4c0.21,0.99,0.06,1.57-1.07,1.67c-0.63,0.06-1.27,0.19-1.86,0.41c-1.28,0.47-1.83,0.13-2.09-1.27
			c-0.74-4.06-1.64-8.1-2.47-12.14C77.8,19.12,77.77,18.85,77.72,18.58z"/>
		<path style="fill:#110E0E;"  class="st0" d="M175.63,69.44c0.01,0.61-0.36,0.73-0.69,0.88c-4.06,1.82-8.12,3.62-12.17,5.44
			c-0.62,0.28-0.96,0.16-1.29-0.48c-1.9-3.76-1.91-3.74,1.93-5.42c3.11-1.37,6.22-2.75,9.31-4.19c0.87-0.41,1.3-0.28,1.62,0.63
			C174.73,67.41,175.23,68.48,175.63,69.44z"/>
		<path style="fill:#110E0E;"  class="st0" d="M118.36,175.52c0.35,1.31,0.65,2.73,1.11,4.11c0.37,1.11,0,1.49-1.07,1.75c-1.08,0.27-1.68,0.18-1.93-1.06
			c-0.31-1.55-0.76-3.08-1.21-4.61c-0.11-0.38,0.04-1.17-0.73-1.01c-0.74,0.15-1.09,0.59-0.86,1.49c0.39,1.54,0.55,3.13,0.91,4.67
			c0.31,1.31-0.51,1.35-1.41,1.56c-0.95,0.23-1.45,0.07-1.59-0.98c-0.19-1.35-0.44-2.69-0.73-4.02c-0.16-0.73,0.06-1.73-1.15-1.85
			c-0.21-0.02-0.37-0.45-0.17-0.54c0.94-0.46,0.56-1.32,0.71-2.02c0.33-1.46,2.5-2.39,3.73-1.62c0.36,0.23,0.62,0.54,0.63,0.99
			c0.01,0.37-0.26,0.56-0.57,0.67c-0.52,0.19-0.57-0.28-0.76-0.56c-0.17-0.25-0.4-0.41-0.68-0.24c-0.27,0.16-0.25,0.45-0.18,0.73
			c0.22,0.89,1.38,1.33,2.46,1.01c1.01-0.3,1.89-1.32,3.13-0.57c0.11,0.07,0.56-0.5,0.89-0.71c0.53-0.34,1.13-0.47,1.65-0.03
			c0.62,0.53,0.84,1.3,0.73,2.09c-0.1,0.68-0.77,0.67-1.28,0.82c-0.36,0.11-0.62,0.02-0.73-0.38c-0.1-0.36,0.12-1.02-0.44-0.96
			C118.27,174.32,118.49,174.99,118.36,175.52z"/>
		<path style="fill:#110E0E;"  class="st0" d="M84.94,179.23c0.04-0.87,0.22-1.99,0.72-3.03c0.69-1.44,2.12-2.08,3.52-1.35c1.18,0.61,1.12,0,1.23-0.82
			c0.11-0.8-0.2-1.91,1.35-1.79c1.96,0.16,1.96,0.08,1.7,2.06c-0.35,2.66-0.7,5.31-0.99,7.98c-0.1,0.9-0.37,1.29-1.37,1.12
			c-1.21-0.21-2.4-0.46-3.69-0.37C85.74,183.15,84.88,181.76,84.94,179.23z M89.99,178.03c0-0.46,0.01-0.64,0-0.82
			c-0.02-0.51-0.04-1.08-0.67-1.16c-0.66-0.08-0.79,0.51-0.87,0.99c-0.19,1.29-0.37,2.59-0.49,3.89c-0.04,0.45,0.1,0.95,0.67,1.01
			c0.57,0.06,0.79-0.39,0.87-0.85C89.7,179.98,89.85,178.87,89.99,178.03z"/>
		<path style="fill:#110E0E;"  class="st0" d="M59.24,165.97c1.67-0.97,2.71-0.78,3.98,0.71c0.05,0.17,0.16,0.32,0.34,0.29c0.25-0.04,0.32-0.24,0.32-0.47
			c0.12-0.19,0.25-0.38,0.36-0.57c0.88-1.58,1.73-1.71,3.13-0.56c0.55,0.45,0.18,0.81-0.02,1.17c-0.81,1.51-1.65,3.01-2.48,4.51
			c-0.55,0.5-0.82,1.17-1.05,1.85c-0.16,0.27-0.32,0.54-0.47,0.81c-0.99,1.74-1.01,1.78-2.69,0.72c-0.75-0.47-1.42-0.95-2.34-1.13
			c-0.81-0.16-1.36-0.84-1.63-1.66c0-0.47,0-0.93,0-1.4c0.23-0.62,0.46-1.24,0.69-1.87C58,167.58,58.62,166.78,59.24,165.97z
			 M62.79,168.22c0-0.47-0.05-0.74-0.34-0.87c-0.28-0.12-0.57-0.07-0.75,0.15c-1.01,1.29-1.83,2.7-2.41,4.24
			c-0.12,0.31-0.02,0.63,0.29,0.84c0.26,0.17,0.56,0.15,0.75-0.06C61.52,171.22,62.27,169.69,62.79,168.22z"/>
		<path style="fill:#110E0E;"  class="st0" d="M138.3,166.44c0,0.57,0.22,1.07,0.5,1.53c0.52,0.85,0.98,1.76,1.6,2.53c0.88,1.09,0.52,1.64-0.55,2.29
			c-0.94,0.57-1.38,0.43-1.91-0.49c-0.93-1.61-1.98-3.15-2.95-4.74c-0.23-0.38-0.85-0.85-0.2-1.27c0.67-0.44,1.22-1.5,2.14-1.06
			c0.67,0.32,0.67,0.11,0.91-0.35c1.2-2.39,3.03-2.47,4.47-0.23c0.83,1.3,1.63,2.62,2.49,3.9c0.62,0.91-0.05,1.22-0.66,1.52
			c-0.6,0.3-1.19,1.26-1.9,0.12c-0.88-1.42-1.77-2.82-2.68-4.23c-0.2-0.3-0.45-0.65-0.87-0.48
			C138.3,165.66,138.29,166.07,138.3,166.44z"/>
		<path style="fill:#110E0E;"  class="st0" d="M147.09,167.36c-2.06,0.04-4.48-2.48-4.51-4.68c-0.02-1.95,2.25-4.1,4.35-4.12c1.92-0.01,4.38,2.55,4.46,4.65
			C151.45,165.16,149.22,167.32,147.09,167.36z M145.31,160.19c-0.89,0.14-0.77,0.69-0.51,1.2c0.78,1.55,1.87,2.86,3.18,3.99
			c0.31,0.27,0.72,0.51,1.1,0.19c0.38-0.32,0.21-0.78,0.02-1.12c-0.83-1.51-1.86-2.87-3.23-3.95
			C145.7,160.37,145.48,160.29,145.31,160.19z"/>
		<path style="fill:#110E0E;"  class="st0" d="M98.9,179.95c-0.18,0-0.37-0.03-0.54,0.01c-0.57,0.14-1.55-0.45-1.58,0.69c-0.03,0.94,0.03,2.02,1.24,2.28
			c0.98,0.21,1.55-0.32,1.67-1.31c0.05-0.4,0.03-0.89,0.68-0.73c0.6,0.15,0.62,0.58,0.48,1.07c-0.19,0.63-0.56,1.14-1.13,1.48
			c-1.26,0.76-3.79,0.58-4.92-0.37c-1.55-1.31-1.46-3.07-1.07-4.78c0.37-1.63,1.47-2.7,3.19-2.96c2.36-0.36,4.31,1.52,4.1,3.91
			c-0.04,0.5-0.25,0.75-0.76,0.74c-0.45-0.01-0.91,0-1.36,0C98.9,179.96,98.9,179.96,98.9,179.95z M98.4,177.76
			c-0.14-0.46,0.03-1.5-0.83-1.42c-0.96,0.09-0.7,1.2-0.84,1.89c-0.12,0.62,0.36,0.7,0.86,0.72
			C98.37,178.98,98.48,178.52,98.4,177.76z"/>
		<path style="fill:#110E0E;"  class="st0" d="M128.53,176.04c-0.06-0.45-0.23-0.99,0.5-0.98c0.65,0.01,0.59,0.56,0.62,1.01c0.03,0.62-0.17,1.16-0.56,1.63
			c-0.98,1.19-3.32,1.84-4.73,1.33c-1.45-0.53-2.81-2.89-2.7-4.69c0.11-1.82,1.2-3.14,2.98-3.61c1.79-0.47,3.77,0.76,4.18,2.58
			c0.12,0.53-0.11,0.76-0.54,0.92c-0.64,0.23-1.29,0.43-1.91,0.71c-0.47,0.21-1.29,0.12-1.09,1.06c0.21,0.95,1.32,1.98,2.08,1.85
			c0.83-0.14,1.27-0.65,1.2-1.52C128.55,176.22,128.54,176.13,128.53,176.04z M124.18,172.76c0.37,0.38-0.1,1.44,0.94,1.54
			c0.41,0.04,1.17-0.08,1-0.77c-0.19-0.75-0.43-1.67-1.37-1.83C124.24,171.62,124.19,172.18,124.18,172.76z"/>
		<path style="fill:#110E0E;"  class="st0" d="M132.87,170.33c2.48-0.04,3.66,0.63,3.96,2.22c0.28,1.46-0.76,2.69-2.99,3.49c-1.06,0.38-2.14,0.54-3.1-0.22
			c-0.36-0.29-0.86-0.68-0.36-1.23c0.42-0.47,0.84-0.61,1.31,0.04c0.52,0.72,1.32,0.72,2.11,0.51c0.46-0.12,0.86-0.39,0.83-0.93
			c-0.03-0.48-0.41-0.7-0.85-0.74c-0.72-0.06-1.45-0.07-2.17-0.11c-1.29-0.07-2.45-0.37-2.87-1.81c-0.32-1.12,0.28-2.39,1.56-3.19
			c1.06-0.66,2.2-1.18,3.45-0.49c0.39,0.22,1.01,0.49,0.54,1.13c-0.36,0.48-0.8,0.55-1.23,0.02c-0.11-0.14-0.27-0.25-0.43-0.32
			c-0.59-0.25-1.16-0.15-1.67,0.22c-0.29,0.2-0.42,0.5-0.28,0.83c0.27,0.64,0.87,0.55,1.4,0.58
			C132.32,170.35,132.6,170.33,132.87,170.33z"/>
		<path style="fill:#110E0E;"  class="st0" d="M104.87,178.29c0.09,1.41,0.13,2.82,0.27,4.22c0.11,1.08-0.58,1.1-1.28,1.04c-0.69-0.05-1.73,0.58-1.8-0.88
			c-0.15-2.99-0.34-5.99-0.55-8.98c-0.06-0.81,0.22-1.26,1.05-1.15c0.77,0.1,1.96-0.59,2.03,0.99c0.08,1.59,0.17,3.17,0.26,4.76
			C104.86,178.29,104.87,178.29,104.87,178.29z"/>
		<path style="fill:#6F7044;"  class="st2" d="M59.24,165.97c-0.62,0.81-1.24,1.61-1.86,2.42c-0.31-0.05-0.63-0.1-0.94-0.15c0.39-0.98,1.04-1.79,1.74-2.56
			C58.54,165.78,58.89,165.87,59.24,165.97z"/>
		<path style="fill:#6F7044;"  class="st2" d="M63.82,172.91c0.23-0.69,0.5-1.35,1.05-1.85c0.24,0.06,0.48,0.11,0.72,0.17c-0.28,0.59-0.56,1.17-0.84,1.75
			C64.43,172.95,64.13,172.93,63.82,172.91z"/>
		<path style="fill:#6F7044;"  class="st2" d="M118.3,25.83c0.17-0.63,0.41-1.23,1.11-1.66c0.06,0.92-0.07,1.67-0.51,2.35
			C118.7,26.29,118.5,26.06,118.3,25.83z"/>
		<path style="fill:#6F7044;"  class="st2" d="M109.81,24.13c-0.03-0.73,0.13-1.41,0.56-2.14c0.53,0.73,0.38,1.43,0.28,2.13
			C110.37,24.12,110.09,24.13,109.81,24.13z"/>
		<path style="fill:#6F7044;"  class="st2" d="M45.28,162.63c0.04,0.34-0.61,0.46-0.3,0.87c0.37,0.49,0.79-0.18,1.18,0.01c-0.24,0.58-0.67,0.82-1.26,0.59
			c-0.33-0.13-0.64-0.41-0.6-0.8C44.36,162.76,44.79,162.62,45.28,162.63z"/>
		<path style="fill:#6F7044;"  class="st2" d="M51.06,168.69c0.49,0.03,0.81-0.79,1.31-0.38c0.34,0.27,0.02,0.76,0,1.16
			C51.96,169.15,51.26,169.33,51.06,168.69z"/>
		<path style="fill:#6F7044;"  class="st2" d="M115.13,20.52c-0.37-0.53-0.29-1.09-0.11-1.66C115.49,19.39,115.47,19.95,115.13,20.52z"/>
		<path style="fill:#6F7044;"  class="st2" d="M115.41,24.88c-0.37-0.53-0.29-1.09-0.11-1.66C115.76,23.75,115.74,24.31,115.41,24.88z"/>
		<path style="fill:#6F7044;"  class="st2" d="M110.74,25.48c0.37,0.53,0.29,1.09,0.12,1.65C110.38,26.61,110.41,26.06,110.74,25.48z"/>
		<path style="fill:#6F7044;"  class="st2" d="M120.81,34.85c0.38-0.12,0.77-0.25,1.15-0.37c0.32,0.38,0.03,0.58-0.26,0.69
			C121.35,35.29,121,35.27,120.81,34.85z"/>
		<path style="fill:#6F7044;"  class="st2" d="M56.69,170.25c0,0.47,0,0.93,0,1.4C56.1,171.19,56.1,170.72,56.69,170.25z"/>
		<path style="fill:#6F7044;"  class="st2" d="M111.02,29.3c0.35,0.44,0.28,0.91,0.11,1.38C110.65,30.25,110.7,29.79,111.02,29.3z"/>
		<path style="fill:#6F7044;"  class="st2" d="M72.46,173.31c-0.17-0.47-0.15-0.94-0.05-1.42C73.02,172.34,72.97,172.82,72.46,173.31z"/>
		<path style="fill:#6F7044;"  class="st2" d="M110.18,16.12c-0.17,0.38-0.34,0.76-0.51,1.14C109.48,16.71,109.39,16.21,110.18,16.12z"/>
		<path style="fill:#6F7044;"  class="st2" d="M117.41,32.78c0.16,0.41-0.13,0.9,0.24,1.27C116.89,33.78,116.86,33.62,117.41,32.78z"/>
		<path style="fill:#6F7044;"  class="st2" d="M114.89,17.52c-0.28-0.18-0.56-0.35-0.85-0.53C114.53,16.85,115,16.72,114.89,17.52z"/>
		<path style="fill:#6F7044;"  class="st2" d="M64.56,173.79c0.14,0.38,0.14,0.77,0.01,1.15C64.06,174.56,64.06,174.17,64.56,173.79z"/>
		<path style="fill:#6F7044;"  class="st2" d="M106.54,30.33c0.03,0.28,0.05,0.57,0.08,0.85C105.97,30.96,106.05,30.67,106.54,30.33z"/>
		<path style="fill:#6F7044;"  class="st2" d="M116.01,26.13c-0.06,0.24-0.05,0.61-0.41,0.51c-0.3-0.09-0.21-0.41-0.13-0.66
			C115.65,26.03,115.83,26.08,116.01,26.13z"/>
		<path style="fill:#6F7044;"  class="st2" d="M113.52,16.86c-0.23,0.11-0.42,0.08-0.56-0.15C113.24,16.39,113.39,16.59,113.52,16.86z"/>
		<path style="fill:#6F7044;"  class="st2" d="M109.48,18.04c0.13,0.23,0.1,0.43-0.14,0.57C109.05,18.34,109.24,18.19,109.48,18.04z"/>
		<path style="fill:#6F7044;"  class="st2" d="M121.14,18.8c-0.2,0-0.4,0-0.6,0.01C120.74,18.35,120.94,18.36,121.14,18.8z"/>
		<path style="fill:#6F7044;"  class="st2" d="M123.07,19.28c-0.28,0.16-0.49,0.04-0.67-0.18C122.68,18.9,122.9,18.99,123.07,19.28z"/>
		<path style="fill:#6F7044;"  class="st2" d="M109.22,19.14c0.13,0.23,0.09,0.42-0.14,0.57C108.78,19.43,108.97,19.28,109.22,19.14z"/>
		<path style="fill:#6F7044;"  class="st2" d="M125.22,19.93c-0.23,0.04-0.43-0.01-0.54-0.24C125.03,19.39,125.15,19.6,125.22,19.93z"/>
		<path style="fill:#6F7044;"  class="st2" d="M117.67,31.68c0.13,0.23,0.09,0.42-0.14,0.57C117.23,31.97,117.42,31.82,117.67,31.68z"/>
		<path style="fill:#6F7044;"  class="st2" d="M119.69,20c0.05,0.31-0.1,0.5-0.37,0.61C119.21,20.26,119.35,20.06,119.69,20z"/>
		<path style="fill:#6F7044;"  class="st2" d="M108.96,20.23c0.12,0.23,0.08,0.42-0.14,0.57C108.51,20.52,108.7,20.37,108.96,20.23z"/>
		<path style="fill:#6F7044;"  class="st2" d="M125.1,21.41c-0.13-0.23-0.09-0.42,0.14-0.57C125.55,21.12,125.35,21.27,125.1,21.41z"/>
		<path style="fill:#6F7044;"  class="st2" d="M108.7,21.32c0.12,0.23,0.08,0.42-0.14,0.56C108.23,21.61,108.43,21.46,108.7,21.32z"/>
		<path style="fill:#6F7044;"  class="st2" d="M118.88,21.36c0.04,0.31-0.1,0.5-0.37,0.61C118.4,21.62,118.53,21.43,118.88,21.36z"/>
		<path style="fill:#6F7044;"  class="st2" d="M124.78,22.76c-0.1-0.22-0.07-0.41,0.14-0.56C125.27,22.49,125.06,22.63,124.78,22.76z"/>
		<path style="fill:#6F7044;"  class="st2" d="M108.44,22.42c0.11,0.23,0.08,0.42-0.14,0.56C107.96,22.7,108.17,22.55,108.44,22.42z"/>
		<path style="fill:#6F7044;"  class="st2" d="M118.06,22.73c0.04,0.3-0.1,0.49-0.37,0.61C117.58,22.99,117.71,22.79,118.06,22.73z"/>
		<path style="fill:#6F7044;"  class="st2" d="M124.51,23.85c-0.11-0.23-0.07-0.42,0.15-0.56C125,23.58,124.79,23.73,124.51,23.85z"/>
		<path style="fill:#6F7044;"  class="st2" d="M108.18,23.51c0.11,0.23,0.08,0.42-0.14,0.56C107.69,23.78,107.9,23.64,108.18,23.51z"/>
		<path style="fill:#6F7044;"  class="st2" d="M124.25,24.95c-0.11-0.23-0.08-0.42,0.15-0.56C124.72,24.67,124.52,24.82,124.25,24.95z"/>
		<path style="fill:#6F7044;"  class="st2" d="M109.54,25.22c-0.12-0.23-0.09-0.42,0.14-0.57C110.01,24.94,109.81,25.09,109.54,25.22z"/>
		<path style="fill:#6F7044;"  class="st2" d="M107.85,24.86c0.13,0.23,0.1,0.43-0.14,0.57C107.41,25.16,107.61,25,107.85,24.86z"/>
		<path style="fill:#6F7044;"  class="st2" d="M123.99,26.04c-0.12-0.23-0.08-0.42,0.14-0.57C124.45,25.76,124.26,25.91,123.99,26.04z"/>
		<path style="fill:#6F7044;"  class="st2" d="M109.28,26.32c-0.12-0.23-0.09-0.42,0.14-0.57C109.74,26.03,109.54,26.18,109.28,26.32z"/>
		<path style="fill:#6F7044;"  class="st2" d="M107.59,25.95c0.13,0.23,0.09,0.42-0.14,0.57C107.14,26.25,107.34,26.09,107.59,25.95z"/>
		<path style="fill:#6F7044;"  class="st2" d="M123.73,27.13c-0.13-0.23-0.09-0.42,0.14-0.57C124.18,26.84,123.99,27,123.73,27.13z"/>
		<path style="fill:#6F7044;"  class="st2" d="M109.02,27.41c-0.13-0.23-0.09-0.42,0.14-0.57C109.46,27.12,109.27,27.27,109.02,27.41z"/>
		<path style="fill:#6F7044;"  class="st2" d="M107.32,27.05c0.12,0.23,0.09,0.42-0.14,0.57C106.87,27.34,107.07,27.19,107.32,27.05z"/>
		<path style="fill:#6F7044;"  class="st2" d="M58.69,160.4c-0.18,0-0.37,0-0.55,0c0.01-0.18,0.08-0.33,0.28-0.33C58.61,160.07,58.68,160.22,58.69,160.4z"
			/>
		<path style="fill:#6F7044;"  class="st2" d="M118.78,27.05c0.12,0.23,0.09,0.42-0.14,0.57C118.32,27.33,118.52,27.18,118.78,27.05z"/>
		<path style="fill:#6F7044;"  class="st2" d="M123.47,28.23c-0.13-0.23-0.09-0.42,0.14-0.57C123.91,27.93,123.71,28.09,123.47,28.23z"/>
		<path style="fill:#6F7044;"  class="st2" d="M107.07,28.14c0.12,0.23,0.08,0.42-0.14,0.56C106.6,28.42,106.8,28.27,107.07,28.14z"/>
		<path style="fill:#6F7044;"  class="st2" d="M108.69,28.76c-0.11-0.23-0.08-0.42,0.14-0.56C109.19,28.49,108.98,28.63,108.69,28.76z"/>
		<path style="fill:#6F7044;"  class="st2" d="M123.14,29.58c-0.1-0.22-0.08-0.42,0.14-0.56C123.64,29.31,123.42,29.45,123.14,29.58z"/>
		<path style="fill:#6F7044;"  class="st2" d="M106.8,29.24c0.11,0.23,0.08,0.42-0.14,0.56C106.32,29.51,106.53,29.37,106.8,29.24z"/>
		<path style="fill:#6F7044;"  class="st2" d="M63.88,166.5c0,0.23-0.07,0.43-0.32,0.47c-0.19,0.03-0.29-0.12-0.34-0.29
			C63.44,166.62,63.66,166.56,63.88,166.5z"/>
		<path style="fill:#6F7044;"  class="st2" d="M108.43,29.85c-0.11-0.23-0.08-0.42,0.14-0.56C108.91,29.58,108.71,29.72,108.43,29.85z"/>
		<path style="fill:#6F7044;"  class="st2" d="M118.26,29.24c0.11,0.23,0.07,0.42-0.15,0.56C117.77,29.51,117.98,29.37,118.26,29.24z"/>
		<path style="fill:#6F7044;"  class="st2" d="M115.44,30.64c-0.04-0.31,0.1-0.5,0.37-0.61C115.92,30.38,115.79,30.57,115.44,30.64z"/>
		<path style="fill:#6F7044;"  class="st2" d="M122.88,30.67c-0.11-0.23-0.07-0.42,0.14-0.56C123.36,30.4,123.15,30.54,122.88,30.67z"/>
		<path style="fill:#6F7044;"  class="st2" d="M118.52,28.14c0.12,0.23,0.08,0.42-0.14,0.56C118.05,28.42,118.25,28.28,118.52,28.14z"/>
		<path style="fill:#6F7044;"  class="st2" d="M108.17,30.95c-0.11-0.23-0.08-0.42,0.14-0.56C108.64,30.67,108.44,30.82,108.17,30.95z"/>
		<path style="fill:#6F7044;"  class="st2" d="M117.99,30.33c0.1,0.22,0.07,0.41-0.14,0.56C117.5,30.6,117.71,30.46,117.99,30.33z"/>
		<path style="fill:#6F7044;"  class="st2" d="M106.9,31.32c0.24-0.08,0.45-0.03,0.63,0.15C107.24,31.74,107.04,31.67,106.9,31.32z"/>
		<path style="fill:#6F7044;"  class="st2" d="M122.62,31.76c-0.12-0.23-0.08-0.42,0.14-0.56C123.09,31.49,122.89,31.63,122.62,31.76z"/>
		<path style="fill:#6F7044;"  class="st2" d="M124.16,19.56c-0.23,0.13-0.42,0.09-0.57-0.14C123.87,19.11,124.02,19.31,124.16,19.56z"/>
		<path style="fill:#6F7044;"  class="st2" d="M111.33,32.28c0.22,0,0.4,0.08,0.49,0.29C111.44,32.85,111.34,32.64,111.33,32.28z"/>
		<path style="fill:#6F7044;"  class="st2" d="M122.36,32.86c-0.12-0.23-0.08-0.42,0.14-0.56C122.82,32.58,122.62,32.73,122.36,32.86z"/>
		<path style="fill:#6F7044;"  class="st2" d="M112.35,32.7c0.23-0.12,0.42-0.08,0.56,0.15C112.63,33.16,112.48,32.96,112.35,32.7z"/>
		<path style="fill:#6F7044;"  class="st2" d="M72.12,174.65c-0.07-0.22-0.03-0.41,0.18-0.54C72.65,174.42,72.44,174.55,72.12,174.65z"/>
		<path style="fill:#6F7044;"  class="st2" d="M113.44,32.97c0.2-0.03,0.4-0.05,0.6-0.08C113.9,33.37,113.7,33.39,113.44,32.97z"/>
		<path style="fill:#6F7044;"  class="st2" d="M111.34,16.31c-0.23,0.12-0.42,0.07-0.56-0.15C111.06,15.84,111.21,16.04,111.34,16.31z"/>
		<path style="fill:#6F7044;"  class="st2" d="M112.43,16.58c-0.23,0.12-0.42,0.08-0.56-0.15C112.15,16.11,112.3,16.32,112.43,16.58z"/>
		<path style="fill:#6F7044;"  class="st2" d="M122.09,33.95c-0.13-0.23-0.09-0.42,0.14-0.57C122.55,33.66,122.35,33.82,122.09,33.95z"/>
		<path style="fill:#6F7044;"  class="st2" d="M119.72,34.57c0.23-0.1,0.42-0.07,0.55,0.15C119.98,35.07,119.84,34.85,119.72,34.57z"/>
		<path style="fill:#6F7044;"  class="st2" d="M55.83,158.85c-0.04-0.19-0.07-0.38-0.11-0.57C56.2,158.39,56.25,158.58,55.83,158.85z"/>
		<path style="fill:#01E546;"  class="st3" d="M97.02,39.62c32.05-0.14,58.72,26.26,59,58.13c0.3,33.19-26.29,59.49-58.42,59.76
			c-32.22,0.27-58.18-25.28-59.4-56.54C36.87,67.06,64.06,39.57,97.02,39.62z M65.69,129.94c0.12,0.19,0.27,0.37,0.35,0.57
			c1.78,4.05,4.98,6.15,9.27,6.74c0.02,0.63,0.46,1.01,0.92,1.27c2.08,1.19,4.04,2.56,6.23,3.58c5.53,2.58,11.22,4.28,17.4,3.92
			c1.08-0.06,2.14-0.31,3.23-0.32c1.98-0.02,3.94-0.34,5.9-0.7c3.38-0.62,6.4-2.21,9.56-3.43c2.12-0.82,4.21-1.74,6.04-3.06
			c3.21-2.3,5.87-5.25,8.74-7.93c4.3-4.02,8.47-8.17,11.32-13.44c0.95-1.75,2.29-3.27,2.93-5.19c1.13-3.39,2.36-6.76,3.37-10.19
			c0.74-2.5,1.67-5.08,1.44-7.68c-0.26-2.99-0.7-6-1.22-8.97c-0.62-3.58-2.04-6.94-3.39-10.3c-2.01-5-4.13-9.89-8.1-13.8
			c-6.04-5.94-12.51-11.16-20.33-14.7c-6.62-3-13.43-4.81-20.69-4.75c-4.33,0.04-8.66,0.46-12.93,1.14
			c-2.35,0.37-4.74,0.76-6.93,1.79c-4.02,1.89-7.96,3.94-11.89,6.01c-3.39,1.79-6.38,4.11-9.22,6.64c-3.52,3.13-6.2,6.95-8.68,10.91
			c-2.09,3.34-3.93,6.84-5.06,10.62c-1.38,4.63-2.33,9.36-3.22,14.11c-0.69,3.69-0.03,7.02,1.78,10.3c2.05,3.71,4.49,7.1,7.2,10.33
			c1.71,2.04,3.28,4.22,5.11,6.15c3.09,3.27,6.33,6.39,9.51,9.57C64.71,129.52,65.06,129.96,65.69,129.94z"/>
		<path style="fill:#D2A63A;"  class="st1" d="M68.74,26.28c0.02,1.13-1.07,2.36-2.22,2.58c-0.49,0.09-0.65-0.17-0.8-0.52c-0.47-1.12-0.91-2.26-1.4-3.37
			c-0.26-0.59-0.09-0.89,0.47-1.16C66.77,22.84,68.7,24.04,68.74,26.28z"/>
		<path style="fill:#D2A63A;"  class="st1" d="M163.62,58.13c-1.32-0.1-1.94-0.98-2.49-1.94c-0.21-0.37,0.11-0.59,0.36-0.77c1-0.7,2-1.4,3-2.09
			c0.3-0.21,0.64-0.44,0.95-0.04c0.68,0.89,1.24,1.87,0.75,3C165.72,57.39,164.79,58.01,163.62,58.13z"/>
		<path style="fill:#D2A63A;"  class="st1" d="M169.96,87.96c-2.65,0.05-3.62-0.72-3.96-2.62c-0.11-0.63,0.04-0.94,0.65-1.08c3.58-0.8,7.15-1.61,10.72-2.43
			c0.48-0.11,0.74-0.01,0.92,0.49c0.58,1.63,0.06,3.13-1.5,3.89C174.48,87.33,171.98,87.76,169.96,87.96z"/>
		<path style="fill:#D2A63A;"  class="st1" d="M153,39.55c0.05,0.94-0.28,1.6-0.66,2.21c-1.28,2.11-2.9,3.93-4.77,5.53c-0.55,0.47-1.18,0.88-1.93,0.92
			c-1.1,0.06-1.97-0.52-2.53-1.35c-0.55-0.83,0.44-1.26,0.85-1.76c1.91-2.3,3.87-4.55,5.85-6.79c0.42-0.47,0.68-1.45,1.45-1.16
			c0.78,0.29,1.36,1.04,1.64,1.9C152.97,39.27,152.99,39.5,153,39.55z"/>
		<path style="fill:#D2A63A;"  class="st1" d="M28.16,61.19c1.78,0.46,3.56,0.92,5.34,1.39c0.26,0.07,0.64,0.22,0.48,0.51c-0.52,1-1.09,1.97-1.71,2.9
			c-0.17,0.26-0.5-0.02-0.67-0.22c-1.22-1.43-2.44-2.86-3.66-4.29C28.02,61.38,28.09,61.29,28.16,61.19z"/>
		<path style="fill:#D2A63A;"  class="st1" d="M134.15,28.97c-0.36,1.81-0.72,3.62-1.08,5.43c-0.01,0.04-0.02,0.09-0.03,0.13
			c-0.07,0.28-0.21,0.59-0.53,0.48c-1.02-0.37-1.98-0.87-2.84-1.54c-0.28-0.22-0.05-0.5,0.14-0.7c1.3-1.36,2.61-2.71,3.92-4.07
			C133.87,28.79,134.01,28.88,134.15,28.97z"/>
		<path style="fill:#D2A63A;"  class="st1" d="M49.71,36.17c1.45,1.14,2.9,2.28,4.35,3.43c0.04,0.03,0.07,0.06,0.1,0.09c0.17,0.16,0.39,0.39,0.2,0.57
			c-0.82,0.78-1.71,1.49-2.72,2c-0.3,0.15-0.46-0.21-0.54-0.47c-0.58-1.8-1.14-3.61-1.71-5.41C49.51,36.31,49.61,36.24,49.71,36.17z
			"/>
		<path style="fill:#D2A63A;"  class="st1" d="M74.55,178.19c0.22-0.98,0.48-1.91,1.62-2.14c0.49-0.1,0.54,0.29,0.4,0.6c-0.39,0.89-0.2,2.22-1.52,2.45
			C74.56,179.2,74.55,178.59,74.55,178.19z"/>
		<path style="fill:#D2A63A;"  class="st1" d="M70.44,171.52c-0.26,0.6-0.03,1.57-0.99,1.68c-0.4,0.05-1.13-0.17-0.93-0.86c0.21-0.72,0.47-1.56,1.35-1.72
			C70.45,170.51,70.37,171.1,70.44,171.52z"/>
		<path style="fill:#D2A63A;"  class="st1" d="M52.11,159.73c-0.36,0.83-0.69,1.66-1.08,2.47c-0.21,0.43-0.23,1.14-0.8,1.15c-0.65,0.01-1.06-0.63-1.54-1.03
			c-0.36-0.3-0.06-0.57,0.21-0.76c0.99-0.7,1.98-1.39,2.98-2.08C51.95,159.56,52.03,159.64,52.11,159.73z"/>
		<path style="fill:#D2A63A;"  class="st1" d="M89.99,178.03c-0.13,0.84-0.29,1.96-0.48,3.07c-0.08,0.46-0.3,0.91-0.87,0.85c-0.57-0.06-0.71-0.56-0.67-1.01
			c0.12-1.3,0.3-2.6,0.49-3.89c0.07-0.49,0.2-1.07,0.87-0.99c0.63,0.08,0.65,0.66,0.67,1.16C89.99,177.39,89.99,177.57,89.99,178.03
			z"/>
		<path style="fill:#D2A63A;"  class="st1" d="M62.79,168.22c-0.53,1.47-1.28,3.01-2.45,4.3c-0.19,0.21-0.49,0.23-0.75,0.06c-0.31-0.2-0.41-0.53-0.29-0.84
			c0.58-1.54,1.4-2.95,2.41-4.24c0.18-0.22,0.47-0.28,0.75-0.15C62.74,167.48,62.79,167.75,62.79,168.22z"/>
		<path style="fill:#D2A63A;"  class="st1" d="M145.31,160.19c0.17,0.09,0.39,0.18,0.56,0.31c1.37,1.07,2.39,2.44,3.23,3.95c0.19,0.35,0.36,0.81-0.02,1.12
			c-0.38,0.32-0.78,0.08-1.1-0.19c-1.31-1.13-2.4-2.44-3.18-3.99C144.53,160.88,144.42,160.33,145.31,160.19z"/>
		<path style="fill:#D2A63A;"  class="st1" d="M98.4,177.76c0.08,0.76-0.03,1.22-0.81,1.19c-0.5-0.02-0.98-0.1-0.86-0.72c0.14-0.7-0.13-1.81,0.84-1.89
			C98.43,176.26,98.26,177.3,98.4,177.76z"/>
		<path style="fill:#D2A63A;"  class="st1" d="M124.18,172.76c0.01-0.59,0.06-1.15,0.56-1.06c0.94,0.16,1.19,1.07,1.37,1.83c0.17,0.69-0.59,0.81-1,0.77
			C124.08,174.2,124.55,173.15,124.18,172.76z"/>
		<path style="fill:#01FD4D;"  class="st4" d="M65.69,129.94c-0.63,0.03-0.98-0.41-1.36-0.8c-3.18-3.18-6.42-6.3-9.51-9.57c-1.83-1.93-3.39-4.11-5.11-6.15
			c-2.71-3.23-5.15-6.62-7.2-10.33c-1.81-3.28-2.47-6.61-1.78-10.3c0.89-4.75,1.84-9.49,3.22-14.11c1.13-3.78,2.97-7.27,5.06-10.62
			c2.47-3.96,5.16-7.78,8.68-10.91c2.84-2.53,5.82-4.86,9.22-6.64c3.93-2.07,7.87-4.12,11.89-6.01c2.19-1.03,4.58-1.42,6.93-1.79
			c4.28-0.68,8.6-1.1,12.93-1.14c7.25-0.06,14.06,1.75,20.69,4.75c7.82,3.54,14.28,8.76,20.33,14.7c3.97,3.9,6.09,8.8,8.1,13.8
			c1.35,3.36,2.76,6.72,3.39,10.3c0.52,2.97,0.96,5.97,1.22,8.97c0.23,2.61-0.7,5.18-1.44,7.68c-1.01,3.43-2.24,6.79-3.37,10.19
			c-0.64,1.92-1.98,3.45-2.93,5.19c-2.85,5.27-7.03,9.42-11.32,13.44c-2.87,2.69-5.53,5.63-8.74,7.93
			c-1.83,1.31-3.92,2.24-6.04,3.06c-3.16,1.22-6.18,2.81-9.56,3.43c-1.95,0.36-3.92,0.68-5.9,0.7c-1.1,0.01-2.15,0.26-3.23,0.32
			c-6.18,0.36-11.88-1.34-17.4-3.92c-2.19-1.02-4.15-2.4-6.23-3.58c-0.46-0.26-0.9-0.64-0.92-1.27c0.63-0.03,1.27-0.1,1.9-0.08
			c4.81,0.13,9.62,0.11,14.43,0.28c8.98,0.33,17.97,0.44,26.96,0.68c1.13,0.03,2.17-0.18,3.16-0.66c4.14-2.04,6.85-5.03,7.67-9.84
			c1.49-8.76,3.34-17.46,5.01-26.19c0.15-0.76,0.49-1.14,1.21-1.21c1.14-0.11,1.99-0.72,2.86-1.43c3.62-2.92,3.7-10.7,0.78-14.32
			c-1.03-1.27-2.21-2.57-4.02-2.49c-1.82,0.09-3.62-0.15-5.42-0.06c-0.63,0.03-0.94-0.26-1.19-0.86c-2.9-7.15-5.84-14.28-8.78-21.42
			c-0.7-1.7-1.83-3.03-3.51-3.82c-3.99-1.87-7.84-1.16-11.17,1.34c-4.41,3.31-5.16,5.86-3.55,10.31c0.15,0.43,0.33,0.85,0.49,1.27
			c1.44,3.68,2.87,7.36,4.31,11.03c0.27,0.7,0.51,1.38-0.68,1.34c-4.44-0.14-8.89-0.22-13.33-0.46c-2.14-0.11-2.12-0.24-1.22-2.24
			c1.68-3.72,3.37-7.44,5.03-11.17c1.28-2.87,1.2-5.54-0.85-8.16c-1.37-1.76-3.03-3.01-4.99-3.88c-4.49-2-9.93-1.26-12.26,3.88
			c-2.7,5.96-5.69,11.78-8.26,17.79c-1.03,2.41-2.3,3.12-4.83,2.95c-4.35-0.29-7.8,2.58-8.76,6.81c-1.03,4.51,0.94,9.02,4.85,10.76
			c1.07,0.47,1.52,1.09,1.61,2.2c0.24,2.89,0.55,5.78,0.83,8.67C64.3,115.49,64.99,122.71,65.69,129.94z"/>
		<path style="fill:#6F7044;"  class="st2" d="M65.69,129.94c-0.7-7.22-1.39-14.45-2.09-21.67c-0.28-2.89-0.59-5.77-0.83-8.67
			c-0.09-1.11-0.54-1.72-1.61-2.2c-3.91-1.73-5.88-6.25-4.85-10.76c0.97-4.23,4.42-7.1,8.76-6.81c2.53,0.17,3.8-0.54,4.83-2.95
			c2.56-6.01,5.56-11.84,8.26-17.79c2.33-5.14,7.77-5.88,12.26-3.88c1.95,0.87,3.62,2.12,4.99,3.88c2.05,2.62,2.13,5.29,0.85,8.16
			c-1.66,3.73-3.35,7.45-5.03,11.17c-0.9,2-0.92,2.12,1.22,2.24c4.44,0.23,8.89,0.31,13.33,0.46c1.19,0.04,0.95-0.64,0.68-1.34
			c-1.44-3.68-2.87-7.36-4.31-11.03c-0.17-0.42-0.34-0.84-0.49-1.27c-1.61-4.45-0.86-7,3.55-10.31c3.33-2.5,7.18-3.21,11.17-1.34
			c1.68,0.79,2.81,2.12,3.51,3.82c2.94,7.14,5.87,14.27,8.78,21.42c0.25,0.6,0.55,0.89,1.19,0.86c1.81-0.1,3.61,0.15,5.42,0.06
			c1.82-0.09,2.99,1.21,4.02,2.49c2.92,3.61,2.84,11.4-0.78,14.32c-0.87,0.71-1.72,1.32-2.86,1.43c-0.73,0.07-1.07,0.45-1.21,1.21
			c-1.67,8.73-3.52,17.43-5.01,26.19c-0.82,4.81-3.53,7.8-7.67,9.84c-0.99,0.49-2.03,0.69-3.16,0.66
			c-8.98-0.24-17.97-0.35-26.96-0.68c-4.81-0.18-9.62-0.16-14.43-0.28c-0.63-0.02-1.27,0.05-1.9,0.08
			c-4.29-0.59-7.49-2.69-9.27-6.74C65.95,130.3,65.81,130.13,65.69,129.94z M118.56,130.85c2.02,0.15,2.66-0.36,2.99-2.38
			c1.48-9.09,2.94-18.17,4.43-27.26c0.14-0.88,0-1.32-1.06-1.35c-6.89-0.21-13.78-0.5-20.68-0.73c-7.44-0.24-14.88-0.42-22.32-0.65
			c-3.26-0.1-6.53-0.25-9.79-0.44c-0.97-0.06-1.3,0.26-1.21,1.23c0.31,3.3,0.57,6.6,0.85,9.9c0.48,5.65,0.93,11.3,1.44,16.95
			c0.22,2.48,1.65,3.73,4.11,3.79c5.81,0.15,11.61,0.34,17.42,0.47C102.67,130.57,110.61,130.7,118.56,130.85z M130.06,93.23
			c0,0.03,0,0.06,0,0.1c0.68,0,1.36-0.04,2.04,0.01c1.26,0.08,1.69-0.69,1.83-1.73c0.18-1.33-0.34-2.1-1.5-2.31
			c-0.53-0.1-1.07-0.2-1.61-0.22c-7.93-0.28-15.87-0.56-23.8-0.82c-7.39-0.24-14.79-0.42-22.18-0.66c-3.22-0.1-6.43-0.3-9.65-0.43
			c-3.26-0.12-6.53-0.2-9.8-0.31c-1.11-0.04-1.8,0.45-2.16,1.49c-0.67,1.92,0.45,3.55,2.58,3.61c3.36,0.1,6.71,0.16,10.07,0.22
			c8.58,0.17,17.15,0.34,25.73,0.55C111.09,92.96,120.57,93.07,130.06,93.23z M118.01,81.62c0.45,0,0.91-0.01,1.36,0
			c1.83,0.02,1.87,0.01,1.17-1.72c-2.32-5.76-4.67-11.5-7.01-17.25c-0.48-1.18-1.33-1.6-2.57-1.29c-2.37,0.59-3.19,2.49-2.13,5.15
			c1.63,4.08,3.45,8.09,4.91,12.23C114.53,80.97,115.55,82.21,118.01,81.62z M79.43,80.31c0.77,0,1.54-0.01,2.31,0
			c0.5,0.01,0.79-0.12,1.03-0.64c2.05-4.5,4.14-8.98,6.22-13.46c0.45-0.97,0.66-1.98,0.52-3.04c-0.18-1.28-1.25-2.27-2.73-2.45
			c-0.87-0.1-1.68-0.03-2.15,0.98c-2.36,5.2-4.8,10.37-7.15,15.58C76.16,80.21,76.21,80.23,79.43,80.31z"/>
		<path style="fill:#01FD4D;"  class="st4" d="M118.56,130.85c-7.94-0.15-15.89-0.28-23.83-0.46c-5.81-0.13-11.61-0.32-17.42-0.47
			c-2.46-0.06-3.89-1.32-4.11-3.79c-0.51-5.65-0.96-11.3-1.44-16.95c-0.28-3.3-0.54-6.6-0.85-9.9c-0.09-0.96,0.24-1.28,1.21-1.23
			c3.26,0.19,6.52,0.34,9.79,0.44c7.44,0.23,14.88,0.41,22.32,0.65c6.89,0.22,13.78,0.52,20.68,0.73c1.06,0.03,1.2,0.47,1.06,1.35
			c-1.48,9.08-2.95,18.17-4.43,27.26C121.22,130.49,120.58,131,118.56,130.85z M101.93,109.94c0.31-4.15-1.86-5.26-3.56-5.32
			c-2.31-0.09-4.17,1.93-4.25,4.43c-0.12,3.62-0.24,7.24-0.48,10.85c-0.15,2.21,1.31,4.1,3.53,4.29c2.51,0.21,4.21-1.16,4.33-3.58
			C101.67,116.76,101.81,112.92,101.93,109.94z M88.96,113.84c0.01,0,0.01,0,0.02,0c0-2.18-0.01-4.36,0-6.53
			c0-1.11-0.51-1.9-1.48-2.41c-1.54-0.81-4.1-0.42-5.35,0.79c-0.55,0.53-0.84,1.14-0.85,1.93c-0.01,4.31-0.03,8.62-0.06,12.93
			c-0.01,1.39,0.71,2.32,1.89,2.9c2.84,1.38,5.84-0.16,5.81-3.62C88.94,117.84,88.96,115.84,88.96,113.84z M106.96,118.43
			c-0.1,0-0.19,0-0.29,0c0,1.04-0.06,2.09,0.01,3.13c0.1,1.5,0.97,2.53,2.29,3.13c1.35,0.62,2.61,0.2,3.66-0.71
			c0.98-0.84,1.35-2.02,1.41-3.29c0.18-3.76,0.3-7.53,0.55-11.29c0.09-1.33-0.31-2.3-1.33-3.07c-1.37-1.04-2.89-1-4.4-0.44
			c-1.48,0.54-1.93,1.78-1.92,3.28C106.97,112.26,106.96,115.35,106.96,118.43z"/>
		<path style="fill:#01FD4D;"  class="st4" d="M130.06,93.23c-9.48-0.16-18.97-0.27-28.45-0.51c-8.57-0.21-17.15-0.38-25.73-0.55
			c-3.36-0.07-6.71-0.12-10.07-0.22c-2.13-0.06-3.25-1.69-2.58-3.61c0.36-1.04,1.05-1.53,2.16-1.49c3.26,0.12,6.53,0.19,9.8,0.31
			c3.22,0.12,6.43,0.32,9.65,0.43c7.39,0.24,14.79,0.42,22.18,0.66c7.93,0.25,15.87,0.54,23.8,0.82c0.54,0.02,1.08,0.12,1.61,0.22
			c1.16,0.22,1.67,0.99,1.5,2.31c-0.14,1.04-0.57,1.82-1.83,1.73c-0.68-0.04-1.36-0.01-2.04-0.01
			C130.05,93.3,130.05,93.27,130.06,93.23z"/>
		<path style="fill:#01FD4D;"  class="st4" d="M118.01,81.62c-2.47,0.59-3.48-0.65-4.27-2.87c-1.46-4.14-3.28-8.15-4.91-12.23
			c-1.06-2.66-0.24-4.56,2.13-5.15c1.24-0.31,2.09,0.11,2.57,1.29c2.34,5.75,4.69,11.49,7.01,17.25c0.7,1.73,0.65,1.75-1.17,1.72
			C118.92,81.62,118.47,81.62,118.01,81.62z"/>
		<path style="fill:#01FD4D;"  class="st4" d="M79.43,80.31c-3.21-0.08-3.27-0.11-1.95-3.03c2.35-5.21,4.78-10.38,7.15-15.58c0.46-1.01,1.27-1.08,2.15-0.98
			c1.49,0.18,2.56,1.17,2.73,2.45c0.15,1.06-0.07,2.07-0.52,3.04c-2.08,4.48-4.18,8.96-6.22,13.46c-0.24,0.52-0.53,0.65-1.03,0.64
			C80.97,80.3,80.2,80.31,79.43,80.31z"/>
		<path style="fill:#6F7044;"  class="st2" d="M101.93,109.94c-0.12,2.98-0.26,6.83-0.44,10.67c-0.11,2.42-1.81,3.79-4.33,3.58
			c-2.22-0.19-3.67-2.08-3.53-4.29c0.24-3.61,0.35-7.23,0.48-10.85c0.09-2.5,1.94-4.52,4.25-4.43
			C100.07,104.68,102.24,105.79,101.93,109.94z"/>
		<path style="fill:#6F7044;"  class="st2" d="M88.96,113.84c0,2-0.01,3.99,0,5.99c0.03,3.47-2.97,5-5.81,3.62c-1.19-0.58-1.9-1.51-1.89-2.9
			c0.02-4.31,0.05-8.62,0.06-12.93c0-0.78,0.3-1.4,0.85-1.93c1.24-1.21,3.8-1.6,5.35-0.79c0.97,0.51,1.48,1.29,1.48,2.41
			c-0.01,2.18,0,4.36,0,6.53C88.97,113.84,88.96,113.84,88.96,113.84z"/>
		<path style="fill:#6F7044;"  class="st2" d="M106.96,118.43c0-3.09,0.02-6.17-0.01-9.26c-0.01-1.5,0.44-2.73,1.92-3.28c1.5-0.55,3.02-0.59,4.4,0.44
			c1.02,0.77,1.42,1.74,1.33,3.07c-0.25,3.76-0.37,7.52-0.55,11.29c-0.06,1.26-0.43,2.45-1.41,3.29c-1.06,0.91-2.31,1.33-3.66,0.71
			c-1.32-0.6-2.19-1.64-2.29-3.13c-0.07-1.04-0.01-2.09-0.01-3.13C106.76,118.43,106.86,118.43,106.96,118.43z"/>
	</g>
</g>
</svg>
